<?xml version="1.0" encoding="utf-8"?>
<!-- Generator: Adobe Illustrator 26.0.1, SVG Export Plug-In . SVG Version: 6.00 Build 0)  -->
<svg version="1.1" id="Layer_1" xmlns="http://www.w3.org/2000/svg" xmlns:xlink="http://www.w3.org/1999/xlink" x="0px" y="0px"
	 viewBox="0 0 8 37" style="enable-background:new 0 0 8 37;" xml:space="preserve">
<style type="text/css">
	.st0{stroke:#231F20;stroke-miterlimit:10;}
	.st1{fill:#F4D504;}
	.st2{fill:#FFFFFF;}
</style>
<polyline class="st0" points="4,3.8 4,12.7 4,33.1 "/>
<path d="M7.5,3.9c0,1.9-1.6,3.5-3.5,3.5S0.5,5.8,0.5,3.9S2.1,0.4,4,0.4S7.5,1.9,7.5,3.9"/>
<path class="st1" d="M7.5,33.1c0,1.9-1.6,3.5-3.5,3.5S0.5,35,0.5,33.1s1.6-3.5,3.5-3.5S7.5,31.2,7.5,33.1"/>
<path d="M5.4,33.2c0,0.8-0.7,1.5-1.5,1.5S2.4,34,2.4,33.2s0.7-1.5,1.5-1.5S5.4,32.3,5.4,33.2"/>
<path class="st2" d="M5.5,3.9c0,0.8-0.7,1.5-1.5,1.5S2.5,4.7,2.5,3.9S3.2,2.4,4,2.4S5.5,3,5.5,3.9"/>
</svg>
