<svg id="Layer_1" data-name="Layer 1" xmlns="http://www.w3.org/2000/svg" viewBox="0 0 17.09 13.45"><defs><style>.cls-1{fill:#fff;}</style></defs><path class="cls-1" d="M17,7a.92.92,0,0,0,.06-.33.45.45,0,0,0,0-.12A1.29,1.29,0,0,0,17,6.37a.7.7,0,0,0-.09-.17.69.69,0,0,0-.11-.13L11,.26a.89.89,0,0,0-1.26,0,.9.9,0,0,0,0,1.27l4.29,4.28H.9a.89.89,0,1,0,0,1.78H14.11L9.76,11.92a.89.89,0,0,0,0,1.26.87.87,0,0,0,1.26,0l5.81-5.79a.92.92,0,0,0,.26-.66A.82.82,0,0,1,17,7Zm-.19.3h0l.11-.13A1.13,1.13,0,0,1,16.83,7.33Z"/><path class="cls-1" d="M16.82,7.33l.11-.13a1.13,1.13,0,0,1-.1.13Z"/><path class="cls-1" d="M17.09,6.73A.82.82,0,0,1,17,7a.92.92,0,0,0,.06-.33A0,0,0,0,1,17.09,6.73Z"/><path class="cls-1" d="M16.82,7.33l.11-.13a1.13,1.13,0,0,1-.1.13Z"/><path class="cls-1" d="M16.83,6.07a.64.64,0,0,1,.1.13.69.69,0,0,0-.11-.13Z"/><path class="cls-1" d="M17.08,6.7v0s0,0,0,.07A.82.82,0,0,1,17,7,.92.92,0,0,0,17.08,6.7Z"/><path class="cls-1" d="M17.07,6.58a.19.19,0,0,1,0,.08A.88.88,0,0,0,17,6.37,1.29,1.29,0,0,1,17.07,6.58Z"/></svg>