<?xml version="1.0" encoding="utf-8"?>
<!-- Generator: Adobe Illustrator 25.3.1, SVG Export Plug-In . SVG Version: 6.00 Build 0)  -->
<svg version="1.1" id="Layer_1" xmlns="http://www.w3.org/2000/svg" xmlns:xlink="http://www.w3.org/1999/xlink" x="0px" y="0px"
	 viewBox="0 0 17.1 13.4" style="enable-background:new 0 0 17.1 13.4;" xml:space="preserve">
<style type="text/css">
	.st0{fill:#1B1B1B;}
</style>
<path class="st0" d="M17,7c0-0.1,0.1-0.2,0.1-0.3c0,0,0-0.1,0-0.1c0-0.1,0-0.1-0.1-0.2c0-0.1-0.1-0.1-0.1-0.2c0,0-0.1-0.1-0.1-0.1
	L11,0.3c-0.3-0.3-0.9-0.3-1.3,0c0,0,0,0,0,0c-0.3,0.4-0.3,0.9,0,1.3L14,5.8H0.9C0.4,5.8,0,6.2,0,6.7c0,0.5,0.4,0.9,0.9,0.9
	c0,0,0,0,0,0h13.2l-4.3,4.3c-0.3,0.3-0.3,0.9,0,1.3c0,0,0,0,0,0c0.3,0.3,0.9,0.4,1.2,0c0,0,0,0,0,0l5.8-5.8C17,7.2,17.1,7,17.1,6.7
	C17.1,6.8,17,6.9,17,7z M16.8,7.3L16.8,7.3l0.1-0.1C16.9,7.2,16.9,7.3,16.8,7.3L16.8,7.3z"/>
<path class="st0" d="M16.8,7.3l0.1-0.1C16.9,7.2,16.9,7.3,16.8,7.3L16.8,7.3z"/>
<path class="st0" d="M17.1,6.7c0,0.1,0,0.2-0.1,0.3C17,6.9,17.1,6.8,17.1,6.7L17.1,6.7z"/>
<path class="st0" d="M16.8,7.3l0.1-0.1C16.9,7.2,16.9,7.3,16.8,7.3L16.8,7.3z"/>
<path class="st0" d="M16.8,6.1c0,0,0.1,0.1,0.1,0.1C16.9,6.2,16.9,6.1,16.8,6.1L16.8,6.1z"/>
<path class="st0" d="M17.1,6.7L17.1,6.7C17.1,6.7,17.1,6.7,17.1,6.7c0,0.2,0,0.2-0.1,0.3C17,6.9,17.1,6.8,17.1,6.7z"/>
<path class="st0" d="M17.1,6.6C17.1,6.6,17.1,6.6,17.1,6.6c0,0,0-0.1-0.1-0.2C17,6.4,17.1,6.5,17.1,6.6z"/>
</svg>
