<svg id="Layer_1" data-name="Layer 1" xmlns="http://www.w3.org/2000/svg" viewBox="0 0 3.62 5.28"><defs><style>.cls-1{fill:#fff;}</style></defs><path class="cls-1" d="M2.78,4.22,3.5,5.6l-.1.08a1,1,0,0,1-.56-.06,2.05,2.05,0,0,1-.75-.48,3.76,3.76,0,0,1-.67-.81,7,7,0,0,1-.7-1.4A3.39,3.39,0,0,1,.5,2a1.81,1.81,0,0,1,.08-.89A1.22,1.22,0,0,1,.8.76L.9.68c.26.47.5.94.75,1.41h0a.28.28,0,0,0-.15.29,1.34,1.34,0,0,0,.13.4A4.94,4.94,0,0,0,2.36,4a.53.53,0,0,0,.14.12A.22.22,0,0,0,2.78,4.22Z" transform="translate(-0.48 -0.42)"/><path class="cls-1" d="M4,5.35l-.34.18h0c-.25-.46-.49-.92-.73-1.38h0L3.29,4A.17.17,0,0,1,3.5,4l.57,1A.19.19,0,0,1,4,5.33H4Z" transform="translate(-0.48 -0.42)"/><path class="cls-1" d="M2.08,1.82,1.74,2h0C1.49,1.54,1.25,1.08,1,.62H1L1.39.43A.17.17,0,0,1,1.6.5l.57,1.05a.18.18,0,0,1,0,.25h0Z" transform="translate(-0.48 -0.42)"/></svg>