<?xml version="1.0" encoding="utf-8"?>
<!-- Generator: Adobe Illustrator 25.3.1, SVG Export Plug-In . SVG Version: 6.00 Build 0)  -->
<svg version="1.1" id="Layer_1" xmlns="http://www.w3.org/2000/svg" xmlns:xlink="http://www.w3.org/1999/xlink" x="0px" y="0px"
	 viewBox="0 0 8.4 7.3" style="enable-background:new 0 0 8.4 7.3;" xml:space="preserve">
<style type="text/css">
	.st0{fill:#FFFFFF;}
</style>
<path class="st0" d="M6.6,5.7l1.8,1.6H3.5C1.5,7.2,0,5.5,0,3.5C0.1,1.5,1.7,0,3.7,0c2,0.1,3.6,1.7,3.5,3.7C7.2,4.4,7,5,6.6,5.7
	L6.6,5.7z M1.8,4.1c0.3,0,0.5-0.2,0.5-0.5S2.1,3.2,1.8,3.2S1.4,3.4,1.4,3.6S1.6,4.1,1.8,4.1L1.8,4.1z M3.2,3.6
	c0,0.2,0.2,0.5,0.4,0.5c0,0,0,0,0,0l0,0c0.3,0,0.5-0.2,0.5-0.5S3.9,3.2,3.7,3.2C3.4,3.2,3.2,3.4,3.2,3.6L3.2,3.6z M5.4,4.1
	c0.3,0,0.5-0.2,0.5-0.5S5.6,3.2,5.4,3.2S4.9,3.4,4.9,3.6S5.1,4.1,5.4,4.1L5.4,4.1z"/>
</svg>
