<?xml version="1.0" encoding="utf-8"?>
<!-- Generator: Adobe Illustrator 25.3.1, SVG Export Plug-In . SVG Version: 6.00 Build 0)  -->
<svg version="1.1" id="Layer_1" xmlns="http://www.w3.org/2000/svg" xmlns:xlink="http://www.w3.org/1999/xlink" x="0px" y="0px"
	 viewBox="0 0 17.8 17.8" style="enable-background:new 0 0 17.8 17.8;" xml:space="preserve">
<style type="text/css">
	.st0{fill:#1B1B1B;}
</style>
<path class="st0" d="M17.4,15.3c0.6,0.6,0.6,1.5,0,2.1c-0.6,0.6-1.5,0.6-2.1,0l0,0L8.9,11l-6.4,6.3c-0.6,0.6-1.5,0.6-2.1,0
	s-0.6-1.5,0-2.1l6.4-6.4L0.4,2.5c-0.6-0.6-0.6-1.5,0-2.1s1.5-0.6,2.1,0l6.4,6.4l6.4-6.4c0.6-0.6,1.5-0.6,2.1,0
	c0.6,0.6,0.6,1.5,0,2.1l0,0L11,8.9L17.4,15.3z"/>
</svg>
