<?xml version="1.0" encoding="utf-8"?>
<!-- Generator: Adobe Illustrator 25.3.1, SVG Export Plug-In . SVG Version: 6.00 Build 0)  -->
<svg version="1.1" id="Layer_1" xmlns="http://www.w3.org/2000/svg" xmlns:xlink="http://www.w3.org/1999/xlink" x="0px" y="0px"
	 viewBox="0 0 126 67.1" style="enable-background:new 0 0 126 67.1;" xml:space="preserve">
<style type="text/css">
	.st0{fill:#FFFFFF;}
</style>
<g>
	<path class="st0" d="M7.9,38.2V39H1.1V28h0.3C1.8,28,2,28.3,2,28.7v9.5L7.9,38.2z"/>
	<path class="st0" d="M15.5,33.8h-4.9v4.4h6.1V39h-7V28h6.8v0.8h-5.9V33h5.6v0.2c0.1,0.3-0.1,0.6-0.4,0.6
		C15.6,33.8,15.6,33.8,15.5,33.8"/>
	<path class="st0" d="M18.6,39V28h4.4c2.2,0,3.4,0.9,3.4,2.8c0,0.6-0.2,1.1-0.5,1.6c-0.3,0.4-0.8,0.7-1.4,0.8c1.3,0,2.4,1.1,2.4,2.4
		c0,0.1,0,0.2,0,0.2c0,2.1-1.3,3.1-3.8,3.1L18.6,39z M25.4,30.8c0-1.3-0.8-1.9-2.5-1.9h-3.5v4H23c0.6,0,1.2-0.2,1.7-0.6
		C25.1,32,25.4,31.4,25.4,30.8 M25.2,37.7c0.5-0.4,0.7-1.1,0.7-1.7c0-0.7-0.2-1.3-0.7-1.7c-0.7-0.4-1.5-0.6-2.3-0.5h-3.4v4.5H23
		C23.8,38.3,24.5,38.1,25.2,37.7"/>
	<path class="st0" d="M33.4,27.9c1.4-0.1,2.7,0.5,3.7,1.5c1.7,2.5,1.7,5.7,0,8.2c-2,2-5.3,2-7.3,0c-1.7-2.5-1.7-5.7,0-8.2
		C30.6,28.4,32,27.9,33.4,27.9 M33.4,28.8c-1.1-0.1-2.3,0.4-3,1.3c-0.7,1-1.1,2.3-1,3.5c-0.1,1.3,0.3,2.5,1,3.5
		c1.6,1.7,4.2,1.7,5.9,0.1c0,0,0.1-0.1,0.1-0.1c0.7-1,1.1-2.3,1-3.5c0.1-1.2-0.3-2.5-1-3.5C35.6,29.2,34.5,28.7,33.4,28.8"/>
	<path class="st0" d="M40.8,39.1c-0.3,0-0.6-0.3-0.6-0.6c0-0.3,0.3-0.6,0.6-0.6c0.3,0,0.6,0.3,0.6,0.6c0,0.3-0.2,0.6-0.5,0.6
		C40.9,39.1,40.9,39.1,40.8,39.1"/>
	<path class="st0" d="M54,28v11h-0.9v-9.3l-3.6,6c-0.1,0.1-0.1,0.2-0.2,0.3c-0.1,0.1-0.2,0.1-0.4,0.1h-0.2l-3.9-6.4V39h-0.9V28h1
		l4.1,6.8l4.1-6.8H54z"/>
	<path class="st0" d="M65.7,38.3c1.1,0,2.1-0.3,3-0.8c0,0.1,0.1,0.3,0.1,0.4c0,0.2,0,0.3-0.1,0.5c-0.4,0.3-0.8,0.4-1.2,0.5
		c-0.6,0.1-1.2,0.2-1.7,0.2c-1.5,0.1-2.9-0.4-3.9-1.5c-1-1.2-1.4-2.7-1.3-4.2c-0.1-1.4,0.4-2.8,1.3-4c1-1,2.3-1.6,3.7-1.5
		c1-0.1,2,0.2,2.8,0.7c0.1,0.1,0.2,0.3,0.2,0.5c0,0.1,0,0.3-0.1,0.4c-0.9-0.5-1.9-0.7-2.9-0.7c-1.2-0.1-2.3,0.4-3.1,1.3
		c-0.8,1-1.1,2.2-1.1,3.4c-0.1,1.3,0.3,2.6,1.1,3.6C63.3,37.9,64.5,38.4,65.7,38.3"/>
	<path class="st0" d="M75,27.9c1.4-0.1,2.7,0.5,3.7,1.5c1.7,2.5,1.7,5.7,0,8.2c-2,2-5.3,2-7.3,0c-1.7-2.5-1.7-5.7,0-8.2
		C72.2,28.4,73.6,27.9,75,27.9 M75,28.8c-1.1-0.1-2.3,0.4-3,1.3c-0.7,1-1.1,2.3-1,3.5c-0.1,1.3,0.3,2.5,1,3.5
		c1.6,1.7,4.2,1.7,5.9,0.1c0,0,0.1-0.1,0.1-0.1c0.7-1,1.1-2.3,1-3.5c0.1-1.2-0.3-2.5-1-3.5C77.2,29.2,76.1,28.7,75,28.8"/>
	<path class="st0" d="M86.5,38.3c1,0.1,1.9-0.3,2.6-1c0.6-0.9,0.8-1.9,0.8-3V28h0.9v6.4c0,3.1-1.4,4.7-4.2,4.7s-4.2-1.6-4.2-4.7V28
		h0.2c0.3,0,0.6,0.2,0.7,0.5c0,0.1,0,0.1,0,0.2v5.6c-0.1,1.1,0.2,2.1,0.8,3C84.5,38,85.5,38.4,86.5,38.3"/>
	<path class="st0" d="M97.9,34.1h-3.3V39h-0.9V28h4.2c2.4,0,3.6,1,3.6,3c0,0.6-0.2,1.3-0.5,1.8c-0.4,0.5-0.9,0.8-1.4,1l2.1,5.1h-0.4
		c-0.4,0-0.7-0.2-0.9-0.5l-1.8-4.4L97.9,34.1 M94.6,28.8v4.4h3.3c1.8,0,2.7-0.7,2.7-2.2s-0.9-2.2-2.7-2.2H94.6z"/>
	<path class="st0" d="M104.9,28.7V39H104V28h0.3c0.3,0,0.6,0.2,0.7,0.5C104.9,28.6,104.9,28.7,104.9,28.7"/>
	<path class="st0" d="M113.8,33.8h-5v4.4h6.1V39h-7V28h6.9v0.8h-6V33h5.6v0.2c0.1,0.3-0.1,0.6-0.4,0.6
		C114,33.8,113.9,33.8,113.8,33.8"/>
	<path class="st0" d="M121.1,34.1h-3.3V39h-0.9V28h4.2c2.4,0,3.6,1,3.6,3c0,0.6-0.2,1.3-0.5,1.8c-0.4,0.5-0.9,0.8-1.4,1l2.1,5.1
		h-0.4c-0.4,0-0.7-0.2-0.9-0.5l-1.8-4.4L121.1,34.1 M117.8,28.8v4.4h3.3c1.8,0,2.7-0.7,2.7-2.2s-0.9-2.2-2.7-2.2H117.8z"/>
	<path class="st0" d="M5.5,61.9c0,2.1-1.3,3.9-3.3,4.5L0,67.1h41.7l4.5-14.4l-0.7,1.7c-2.7,7.4-9.7,12.2-17.5,12.2h-9.9l-0.8-0.2
		c-2-0.6-3.4-2.4-3.4-4.5V41.2H5.5L5.5,61.9z"/>
	<path class="st0" d="M13.9,5.3c0-2.1,1.3-3.9,3.4-4.5l2.2-0.7H0l2.2,0.7c2,0.6,3.4,2.4,3.3,4.5v20.6h8.4V5.3z"/>
	<polygon class="st0" points="92,54.9 86.2,41.2 77.1,41.2 87.9,66.6 88.2,66.6 97.5,41.2 97,41.2 	"/>
	<path class="st0" d="M61.3,61.8c0,2.1-1.3,3.9-3.4,4.5l-2.2,0.8h11.6l-2.2-0.8c-2-0.6-3.4-2.4-3.3-4.5V41.2h-0.5L61.3,61.8z"/>
	<path class="st0" d="M112,1.5v24.4h8.3V5.2c0-2.1,1.3-3.9,3.4-4.5l2.2-0.7H112l-9.4,25.9h0.5L112,1.5z"/>
	<path class="st0" d="M61.7,5.4l8.7,20.5h9.1L68.5,0H55.7l2.2,0.7c2,0.6,3.4,2.4,3.4,4.5v20.7h0.5L61.7,5.4z"/>
	<path class="st0" d="M112,41.2v20.7c0,2.1-1.3,3.9-3.4,4.5l-2.2,0.7H126l-2.2-0.7c-2-0.6-3.4-2.5-3.4-4.6V41.2H112z"/>
</g>
</svg>
