<svg id="Layer_1" data-name="Layer 1" xmlns="http://www.w3.org/2000/svg" viewBox="0 0 30.78 37"><defs><style>.cls-1{fill:#fff;}</style></defs><path class="cls-1" d="M15.83,0l.58.17a3.13,3.13,0,0,1,2.07,3c0,.53,0,1.06,0,1.59,0,.26.08.37.33.46a10.66,10.66,0,0,1,7,7.43,10.5,10.5,0,0,1,.37,3c0,1.78-.05,3.57.07,5.35a10.24,10.24,0,0,0,3.38,7l.47.44a2.27,2.27,0,0,1,.52,2.53,2.2,2.2,0,0,1-2.11,1.43c-2.49,0-5,0-7.47,0h-.27c-.05.17-.08.35-.13.52a5.33,5.33,0,0,1-4.38,4A1.59,1.59,0,0,0,16,37H14.75c-.25-.06-.49-.11-.73-.18a5.33,5.33,0,0,1-3.9-4.13,1.16,1.16,0,0,0,0-.18.79.79,0,0,0-.05-.13H9.66c-2.46,0-4.91,0-7.36,0a2.19,2.19,0,0,1-2-1.3,2.22,2.22,0,0,1,.22-2.38,2.79,2.79,0,0,1,.47-.5A10.71,10.71,0,0,0,4.63,20c0-1.63,0-3.25,0-4.88a10.76,10.76,0,0,1,7.25-9.86.51.51,0,0,0,.43-.6,14.13,14.13,0,0,1,0-1.84A3,3,0,0,1,14.8.06L15,0ZM15.4,30.84v0H20l8.25,0a.85.85,0,0,0,.91-.5c.14-.35,0-.64-.33-1a12.18,12.18,0,0,1-4.22-9.55c0-1.42,0-2.84,0-4.26a9.86,9.86,0,0,0-.09-1.44,9.23,9.23,0,0,0-18.36,1.1c0,1.74,0,3.49,0,5.23a11.8,11.8,0,0,1-2.62,7.23,23.45,23.45,0,0,1-1.68,1.78.78.78,0,0,0,.51,1.39h13Zm3.73,1.56H11.66a3.81,3.81,0,0,0,7.47,0ZM16.9,4.67s0,0,0-.08c0-.53,0-1.06,0-1.59A1.53,1.53,0,0,0,15.5,1.54a1.48,1.48,0,0,0-1.58,1.15,14.55,14.55,0,0,0,0,2Z"/></svg>