<svg id="Layer_1" data-name="Layer 1" xmlns="http://www.w3.org/2000/svg" viewBox="0 0 21.84 19.35"><defs><style>.cls-1{fill:#fff;}</style></defs><path class="cls-1" d="M20.39,14.86v2c0,1.78-.7,2.5-2.46,2.5H2.34A2,2,0,0,1,0,17V5.76A2,2,0,0,1,2.24,3.5,4.42,4.42,0,0,0,4.38,3C6.18,2.12,8,1.28,9.82.41c1.29-.62,1.29-.63,1.9.64.1.22.21.44.38.76L15,.45c.88-.42.94-.4,1.36.46.33.69.68,1.38,1,2.08a.73.73,0,0,0,.79.51,2,2,0,0,1,2.28,2.3c0,.71,0,1.43,0,2.1.12.06.16.11.21.11,1.24.08,1.24.08,1.24,1.33v4.33c0,1.05,0,1.05-1.06,1.12A2.32,2.32,0,0,0,20.39,14.86ZM19.42,8c0-.88,0-1.65,0-2.41S19,4.45,18.26,4.45H2.14A1,1,0,0,0,1,5.61c0,3.88,0,7.77,0,11.65A1,1,0,0,0,2,18.38q8.17,0,16.35,0a1,1,0,0,0,1-1c0-.84,0-1.68,0-2.49-.1-.06-.14-.1-.18-.1l-2.69,0a2.3,2.3,0,0,1-2.43-2.44c0-.6,0-1.2,0-1.79A2.33,2.33,0,0,1,16.64,8Zm1.41,5.78V9c-1.55,0-3,0-4.53,0a1.26,1.26,0,0,0-1.2,1.29q0,1.08,0,2.16a1.28,1.28,0,0,0,1.33,1.32C17.87,13.83,19.32,13.81,20.83,13.81ZM11.22,3.32l0,.11h5.21l-1-2.12Zm-.57-2.23L5.87,3.38a6.55,6.55,0,0,0,5.3-1.21Z"/><path class="cls-1" d="M18,11.39c0,.6-.36.93-.91.91a.83.83,0,0,1-.86-.93.81.81,0,0,1,.87-.83A.84.84,0,0,1,18,11.39Z"/></svg>