<?xml version="1.0" encoding="utf-8"?>
<!-- Generator: Adobe Illustrator 25.3.1, SVG Export Plug-In . SVG Version: 6.00 Build 0)  -->
<svg version="1.1" id="Layer_1" xmlns="http://www.w3.org/2000/svg" xmlns:xlink="http://www.w3.org/1999/xlink" x="0px" y="0px"
	 viewBox="0 0 27 27" style="enable-background:new 0 0 27 27;" xml:space="preserve">
<style type="text/css">
	.st0{fill:#FFFFFF;}
</style>
<circle class="st0" cx="13.5" cy="13.5" r="5"/>
<path class="st0" d="M25.4,12h-1c-0.7-4.9-4.5-8.7-9.4-9.4v-1C15,0.7,14.4,0,13.5,0C12.6,0,12,0.8,12,1.6c0,0,0,0,0,0v1
	C7.1,3.3,3.3,7.1,2.6,12h-1C0.7,12,0,12.6,0,13.5C0,14.4,0.8,15,1.6,15c0,0,0,0,0,0h1c0.7,4.9,4.5,8.7,9.4,9.4v1
	c0,0.9,0.6,1.6,1.5,1.6c0.9,0,1.5-0.8,1.5-1.6c0,0,0,0,0,0v-1c4.9-0.7,8.7-4.5,9.4-9.4h1c0.9,0,1.6-0.6,1.6-1.5
	C27,12.6,26.2,12,25.4,12C25.4,12,25.4,12,25.4,12z M13.5,21.5c-4.4,0-8-3.6-8-8s3.6-8,8-8s8,3.6,8,8S17.9,21.5,13.5,21.5z"/>
</svg>
