<?xml version="1.0" encoding="utf-8"?>
<!-- Generator: Adobe Illustrator 25.3.1, SVG Export Plug-In . SVG Version: 6.00 Build 0)  -->
<svg version="1.1" id="Layer_1" xmlns="http://www.w3.org/2000/svg" xmlns:xlink="http://www.w3.org/1999/xlink" x="0px" y="0px"
	 viewBox="0 0 251.9 233.8" style="enable-background:new 0 0 251.9 233.8;" xml:space="preserve">
<style type="text/css">
	.st0{fill:#FFFFFF;}
	.st1{fill:#E6E6E5;}
	.st2{fill:#D1D1D1;}
	.st3{fill:#F5F5F5;}
	.st4{fill:#1F2958;}
	.st5{fill:#1A1A1A;}
	.st6{fill:#AD60A5;}
	.st7{fill:#1D1C1A;}
	.st8{fill:#212221;}
	.st9{fill:#868686;}
	.st10{clip-path:url(#SVGID_2_);}
	.st11{fill:url(#SVGID_3_);}
	.st12{fill:#DADAD9;}
	.st13{fill:#EDECED;}
	.st14{clip-path:url(#SVGID_5_);}
	.st15{fill:url(#SVGID_6_);}
	.st16{clip-path:url(#SVGID_8_);}
	.st17{fill:url(#SVGID_9_);}
	.st18{fill:#E088B8;}
	.st19{clip-path:url(#SVGID_11_);}
	.st20{fill:url(#SVGID_12_);}
	.st21{clip-path:url(#SVGID_14_);}
	.st22{fill:url(#SVGID_15_);}
	.st23{clip-path:url(#SVGID_17_);}
	.st24{fill:url(#SVGID_18_);}
	.st25{clip-path:url(#SVGID_20_);}
	.st26{fill:url(#SVGID_21_);}
	.st27{clip-path:url(#SVGID_23_);}
	.st28{fill:url(#SVGID_24_);}
	.st29{clip-path:url(#SVGID_26_);}
	.st30{fill:url(#SVGID_27_);}
	.st31{clip-path:url(#SVGID_29_);}
	.st32{fill:url(#SVGID_30_);}
	.st33{clip-path:url(#SVGID_32_);}
	.st34{fill:url(#SVGID_33_);}
	.st35{clip-path:url(#SVGID_35_);}
	.st36{fill:url(#SVGID_36_);}
	.st37{clip-path:url(#SVGID_38_);}
	.st38{fill:url(#SVGID_39_);}
	.st39{clip-path:url(#SVGID_41_);}
	.st40{fill:url(#SVGID_42_);}
	.st41{fill:#2E4061;}
	.st42{fill:#BF5059;}
	.st43{fill:#F59488;}
	.st44{fill:#223A61;}
	.st45{clip-path:url(#SVGID_44_);}
	.st46{fill:#6D412A;}
	.st47{fill:#FF8B66;}
	.st48{fill:#AD663D;}
	.st49{fill:#1B1B1B;}
	.st50{fill:#09222B;}
	.st51{fill:#DCECEB;}
	.st52{fill:#ECECEC;}
	.st53{fill:#C6E1DD;}
	.st54{fill:#161616;}
	.st55{fill:#222222;}
	.st56{opacity:0.3;fill:#FFFFFF;enable-background:new    ;}
	.st57{fill:#FCE8D9;}
	.st58{fill:url(#SVGID_45_);}
</style>
<path class="st0" d="M243.2,113.3c0,62.6-50.7,113.3-113.3,113.3S16.6,175.9,16.6,113.3S67.4,0,129.9,0
	C192.5,0,243.2,50.7,243.2,113.3L243.2,113.3"/>
<rect x="199.7" y="75.5" class="st1" width="21.9" height="71.2"/>
<rect x="221.6" y="75.5" class="st2" width="13.1" height="71.2"/>
<rect x="228.2" y="88.6" class="st1" width="18.5" height="58"/>
<rect x="228.2" y="91.4" class="st3" width="16.9" height="1.7"/>
<rect x="228.2" y="95.4" class="st3" width="13.4" height="1.7"/>
<rect x="228.2" y="99.4" class="st3" width="16.9" height="1.7"/>
<rect x="235.8" y="103.4" class="st3" width="9.3" height="1.7"/>
<rect x="228.2" y="107.5" class="st3" width="16.9" height="1.7"/>
<rect x="228.2" y="111.5" class="st3" width="15.3" height="1.7"/>
<rect x="239.8" y="115.5" class="st3" width="5.3" height="1.7"/>
<rect x="230.5" y="119.5" class="st3" width="14.6" height="1.7"/>
<rect x="237.4" y="123.5" class="st3" width="7.7" height="1.7"/>
<rect x="228.2" y="127.6" class="st3" width="16.9" height="1.7"/>
<rect x="228.2" y="131.6" class="st3" width="12" height="1.7"/>
<rect x="228.2" y="135.6" class="st3" width="16.9" height="1.7"/>
<rect x="228.2" y="139.6" class="st3" width="16.9" height="7.1"/>
<rect x="199.7" y="79.3" class="st3" width="16.9" height="1.7"/>
<rect x="199.7" y="83.4" class="st3" width="16.9" height="1.7"/>
<rect x="199.7" y="87.4" class="st3" width="16.9" height="1.7"/>
<rect x="199.7" y="91.4" class="st3" width="16.9" height="1.7"/>
<rect x="199.7" y="95.4" class="st3" width="16.9" height="1.7"/>
<rect x="199.7" y="99.4" class="st3" width="16.9" height="1.7"/>
<rect x="199.7" y="103.4" class="st3" width="16.9" height="1.7"/>
<rect x="199.7" y="107.5" class="st3" width="16.9" height="1.7"/>
<rect x="199.7" y="111.5" class="st3" width="16.9" height="1.7"/>
<rect x="199.7" y="115.5" class="st3" width="16.9" height="1.7"/>
<rect x="199.7" y="119.5" class="st3" width="16.9" height="1.7"/>
<rect x="199.7" y="123.5" class="st3" width="16.9" height="1.7"/>
<rect x="199.7" y="127.6" class="st3" width="16.9" height="1.7"/>
<rect x="199.7" y="131.6" class="st3" width="16.9" height="1.7"/>
<rect x="199.7" y="135.6" class="st3" width="16.9" height="1.7"/>
<rect x="199.7" y="139.6" class="st3" width="16.9" height="1.7"/>
<rect x="199.7" y="143.6" class="st3" width="16.9" height="1.7"/>
<rect x="199.7" y="91.4" class="st0" width="5.6" height="1.7"/>
<rect x="205.2" y="99.4" class="st0" width="1.3" height="1.7"/>
<rect x="213.9" y="83.4" class="st0" width="2.7" height="1.7"/>
<rect x="207.2" y="87.4" class="st0" width="1.3" height="1.7"/>
<rect x="210.9" y="107.5" class="st0" width="4.3" height="1.7"/>
<rect x="201.8" y="79.4" class="st0" width="1.2" height="1.7"/>
<rect x="203.9" y="87.4" class="st0" width="1.3" height="1.7"/>
<rect x="116.1" y="81.9" class="st2" width="10.1" height="64.8"/>
<rect x="150.8" y="62.3" class="st2" width="11.7" height="84.3"/>
<rect x="132.4" y="62.3" class="st1" width="18.4" height="84.3"/>
<rect x="166" y="49.2" class="st1" width="25.6" height="97.5"/>
<rect x="118.1" y="86.3" class="st1" width="1.7" height="60.4"/>
<rect x="118.1" y="90.3" class="st3" width="1.7" height="1.7"/>
<rect x="118.1" y="98.3" class="st3" width="1.7" height="5.7"/>
<rect x="118.1" y="118.4" class="st3" width="1.7" height="1.7"/>
<rect x="132.4" y="66.2" class="st3" width="18.4" height="1.7"/>
<rect x="132.4" y="70.2" class="st3" width="18.4" height="1.7"/>
<rect x="132.4" y="74.3" class="st3" width="18.4" height="1.7"/>
<rect x="132.4" y="78.3" class="st3" width="18.4" height="1.7"/>
<rect x="132.4" y="82.3" class="st3" width="18.4" height="1.7"/>
<rect x="132.4" y="86.3" class="st3" width="18.4" height="1.7"/>
<rect x="132.4" y="90.3" class="st3" width="18.4" height="1.7"/>
<rect x="132.4" y="94.3" class="st3" width="18.4" height="1.7"/>
<rect x="132.4" y="98.3" class="st3" width="18.4" height="1.7"/>
<rect x="132.4" y="102.4" class="st3" width="18.4" height="1.7"/>
<rect x="132.4" y="106.4" class="st3" width="18.4" height="1.7"/>
<rect x="132.4" y="110.4" class="st3" width="18.4" height="1.7"/>
<rect x="132.4" y="114.4" class="st3" width="18.4" height="1.7"/>
<rect x="132.4" y="118.4" class="st3" width="18.4" height="1.7"/>
<rect x="132.4" y="122.4" class="st3" width="18.4" height="1.7"/>
<rect x="132.4" y="126.5" class="st3" width="18.4" height="1.7"/>
<rect x="132.4" y="130.5" class="st3" width="18.4" height="1.7"/>
<rect x="150.8" y="66.2" class="st1" width="7.6" height="1.7"/>
<rect x="150.8" y="70.2" class="st1" width="7.6" height="1.7"/>
<rect x="150.8" y="74.3" class="st1" width="7.6" height="1.7"/>
<rect x="150.8" y="78.3" class="st1" width="7.6" height="1.7"/>
<rect x="150.8" y="82.3" class="st1" width="7.6" height="1.7"/>
<rect x="150.8" y="86.3" class="st1" width="7.6" height="1.7"/>
<rect x="150.8" y="90.3" class="st1" width="7.6" height="1.7"/>
<rect x="150.8" y="94.3" class="st1" width="7.6" height="1.7"/>
<rect x="150.8" y="98.3" class="st1" width="7.6" height="1.7"/>
<rect x="150.8" y="102.4" class="st1" width="7.6" height="1.7"/>
<rect x="150.8" y="106.4" class="st1" width="7.6" height="1.7"/>
<rect x="150.8" y="110.4" class="st1" width="7.6" height="1.7"/>
<rect x="150.8" y="114.4" class="st1" width="7.6" height="1.7"/>
<rect x="150.8" y="118.4" class="st1" width="7.6" height="1.7"/>
<rect x="150.8" y="122.4" class="st1" width="7.6" height="1.7"/>
<rect x="150.8" y="126.5" class="st1" width="7.6" height="1.7"/>
<rect x="150.8" y="130.5" class="st1" width="7.6" height="1.7"/>
<rect x="134.9" y="66.2" class="st0" width="1.7" height="1.7"/>
<rect x="144.1" y="74.3" class="st0" width="6.8" height="1.7"/>
<rect x="138.4" y="90.3" class="st0" width="1.7" height="1.7"/>
<rect x="143.3" y="94.3" class="st0" width="5.7" height="1.7"/>
<rect x="136.2" y="102.4" class="st0" width="1.6" height="1.7"/>
<rect x="141.6" y="102.4" class="st0" width="1.5" height="1.7"/>
<rect x="136.2" y="106.4" class="st0" width="1.6" height="1.7"/>
<rect x="152.9" y="94.3" class="st3" width="1.4" height="1.7"/>
<rect x="155.7" y="78.3" class="st3" width="2.8" height="1.7"/>
<rect x="152.9" y="70.2" class="st3" width="1.5" height="1.7"/>
<rect x="168.3" y="53.3" class="st0" width="0.6" height="93.4"/>
<rect x="170.8" y="53.3" class="st0" width="0.6" height="93.4"/>
<rect x="173.4" y="53.3" class="st0" width="0.6" height="93.4"/>
<rect x="175.9" y="53.3" class="st0" width="0.6" height="93.4"/>
<rect x="178.5" y="53.3" class="st3" width="0.6" height="93.4"/>
<rect x="181.1" y="53.3" class="st3" width="0.6" height="53.7"/>
<rect x="183.6" y="53.3" class="st0" width="0.6" height="93.4"/>
<rect x="186.2" y="53.3" class="st3" width="0.6" height="45.7"/>
<rect x="188.7" y="53.3" class="st3" width="0.6" height="44.1"/>
<rect x="191.6" y="95.2" class="st2" width="8.1" height="51.5"/>
<rect x="152.6" y="58.8" class="st2" width="5.9" height="3.6"/>
<rect x="145.8" y="58.8" class="st1" width="6.9" height="3.6"/>
<rect x="218.6" y="71.9" class="st2" width="5.9" height="3.6"/>
<rect x="211.8" y="71.9" class="st1" width="6.9" height="3.6"/>
<rect x="49.7" y="101.5" class="st1" width="9.1" height="45.2"/>
<rect x="42.6" y="114.5" class="st2" width="7.1" height="32.2"/>
<rect x="29.4" y="119.5" class="st3" width="13.2" height="1.7"/>
<rect y="123.5" class="st3" width="40.6" height="1.7"/>
<rect x="8" y="127.6" class="st3" width="20.5" height="1.7"/>
<rect x="34.3" y="131.6" class="st3" width="8.2" height="1.7"/>
<rect x="15.4" y="135.6" class="st3" width="24.5" height="1.7"/>
<rect x="2.9" y="139.6" class="st3" width="39.7" height="7.1"/>
<rect x="39.6" y="110.9" class="st2" width="5.9" height="3.6"/>
<rect x="32.8" y="110.9" class="st1" width="6.9" height="3.6"/>
<path class="st4" d="M251.9,166.9c0,0.8-22.4,1.4-50.1,1.4s-50.1-0.6-50.1-1.4c0-0.8,22.4-1.4,50.1-1.4S251.9,166.1,251.9,166.9"/>
<path class="st4" d="M183,166.9c0,0.7-19.2,1.2-43,1.2s-43-0.5-43-1.2s19.2-1.2,43-1.2S183,166.2,183,166.9"/>
<path class="st0" d="M114.4,67.4l-8.3,4.8l8.3,14.2V92l-10.7-18.4L78.6,88.2l5.4,9.4l10.7-6.2l3.1,5.4L87.2,103l6.3,10.9l21-12.1
	v3.2l-19.6,11.4l19.5,33.9v1.4H112l-19.5-33.9l-18.2,10.5c4.8,8.9,5.4,16.6,5.5,23.3H77c-0.1-6.3-0.7-13.6-5.1-21.9l-11.3,6.5V133
	l9.9-5.7l-10-17.3v-5.6l12.3,21.4L91,115.2L76.2,89.6l-15.7,9.1v-3.3l14.3-8.3l-12-20.8h3.3l11.2,19.4l25.1-14.5l-2.8-4.9h3.3l2,3.4
	l5.9-3.4h3.7L114.4,67.4L114.4,67.4z"/>
<path class="st5" d="M85.3,87.6c0,0.5-3.8,0.9-8.6,0.9s-8.6-0.4-8.6-0.9s3.8-0.9,8.6-0.9S85.3,87.1,85.3,87.6"/>
<path class="st6" d="M81.8,81c1-1.2,1.6-2.8,1.6-4.3c0-3.7-3-6.7-6.7-6.7C73,70,70,73,70,76.7c0,1.6,0.6,3.1,1.6,4.3l5,6.6L81.8,81z
	"/>
<path class="st0" d="M80.6,76.7c0,2.1-1.7,3.9-3.8,3.9s-3.9-1.7-3.9-3.8s1.7-3.9,3.8-3.9l0,0C78.8,72.8,80.5,74.6,80.6,76.7"/>
<path class="st5" d="M173.5,142.2c-4.2,0-7.7,5.5-7.7,12.3s3.5,12.3,7.7,12.3h7.4v-24.6H173.5z"/>
<path class="st7" d="M188.6,154.6c0,6.8-3.4,12.3-7.7,12.3s-7.7-5.5-7.7-12.3s3.5-12.3,7.7-12.3
	C185.2,142.2,188.6,147.8,188.6,154.6"/>
<path class="st8" d="M186.5,154.6c0,5.1-2.5,9.2-5.6,9.2s-5.5-4.1-5.5-9.2s2.5-9.2,5.5-9.2S186.5,149.5,186.5,154.6"/>
<path class="st7" d="M171.2,159.7c1.2-2.8,1.8-5.8,1.7-8.8c0.2-7.6-4.6-13.9-10.7-13.9c-6.1,0-11,6.6-12.2,14.1
	c-0.5,3.4-0.7,6.2,0.1,8.5L171.2,159.7L171.2,159.7z"/>
<path class="st7" d="M227.1,137.7c-6.1,0-10.3,9.1-10.3,15.8c0,1.7,0.1,3.5,0.3,5.2h17.7c0.6-1.6,0.9-3.3,1-5.1
	C236.3,146.1,233.3,137.7,227.1,137.7"/>
<path class="st5" d="M218.8,142.2c-4.2,0-7.7,5.5-7.7,12.3s3.4,12.3,7.7,12.3h7.4v-24.6H218.8z"/>
<path class="st8" d="M233.9,154.6c0,6.8-3.4,12.3-7.7,12.3s-7.7-5.5-7.7-12.3s3.4-12.3,7.7-12.3S233.9,147.8,233.9,154.6"/>
<path class="st9" d="M231.8,154.6c0,5.1-2.5,9.2-5.6,9.2s-5.5-4.1-5.5-9.2s2.5-9.2,5.5-9.2S231.8,149.5,231.8,154.6"/>
<path class="st5" d="M153.9,142.2c-4.2,0-7.7,5.5-7.7,12.3s3.4,12.3,7.7,12.3h7.4v-24.6H153.9z"/>
<path class="st8" d="M169.1,154.6c0,6.8-3.4,12.3-7.7,12.3s-7.7-5.5-7.7-12.3s3.5-12.3,7.7-12.3
	C165.6,142.2,169.1,147.8,169.1,154.6"/>
<path class="st9" d="M166.9,154.6c0,5.1-2.5,9.2-5.6,9.2s-5.5-4.1-5.5-9.2s2.5-9.2,5.5-9.2C164.4,145.3,166.9,149.5,166.9,154.6"/>
<path class="st5" d="M108.6,142.2c-4.2,0-7.7,5.5-7.7,12.3s3.4,12.3,7.7,12.3h7.4v-24.6H108.6z"/>
<path class="st7" d="M123.7,154.6c0,6.8-3.4,12.3-7.7,12.3s-7.7-5.5-7.7-12.3s3.4-12.3,7.7-12.3S123.7,147.8,123.7,154.6"/>
<path class="st8" d="M121.6,154.6c0,5.1-2.5,9.2-5.6,9.2s-5.6-4.1-5.6-9.2s2.5-9.2,5.6-9.2S121.6,149.5,121.6,154.6"/>
<g>
	<g>
		<defs>
			<path id="SVGID_1_" d="M146.1,110c-3.7,0.3-8.4,0.9-12,1.5c-3.7,0.5-7.3,1.3-10.8,2.5c-7.1,2.6-12.1,5.5-18.6,9
				c-1.4,0.6-2.8,1-4.3,1.1c-1.2,0.2-2.7,0.3-3.2,1.6c-0.2,0.5-0.1,1.2-0.3,1.6s-0.8,0.5-1.1,0.8c-0.9,0.9-1.1,3.4-0.7,4.5
				c0.4,1.2-0.5,3.1-0.9,4.2c-0.8,1.5-1.3,3.2-1.5,4.9c-0.1,1.8,0.3,3.4,0.2,5.2c0,0.7,0.1,1.5,0.2,2.2c0,0.8-0.1,1.6-0.4,2.4
				c-0.3,1.2-0.2,2.5,0.3,3.6c0.5,1.2,1.6,1.4,2.8,1.6c1.6,0.3,3.2,0.7,4.8,1c1.8,0.3,3.5,0.4,5.3,0.3h45.9c0-1.2,0-2.5,0.1-3.7
				c0.6-5.1,2.1-9.3,4.1-11.6c3.9-4.6,7.7-4.5,10.5-2.4c2.3,1.7,3.9,4.2,4.5,7c0.8,3,0.8,6.1,0.1,9.1c-0.1,0.8-0.5,2.2-0.8,3.2h48.8
				c-0.3-2.6-0.3-5.3,0-7.9c0.3-3.2,1.3-6.3,2.9-9c1.8-2.9,5-4.8,7.6-3.3c3.6,2.1,4.4,5.2,5.1,7.6c0.8,3.2,0.8,6.5,0.3,9.8
				c-0.1,0.7-0.1,1.6,0,1.7c0.5,0.1,1.3,0.2,1.5-0.4c0.5-1.5,0.8-3,1-4.6c0.3-3,0.7-6.7-0.2-9.8c-0.2-0.7-0.5-1.3-0.9-1.9
				c-0.3-0.4-0.4-1-0.3-1.5c0.3-1.4-0.2-2.8-1.2-3.7c-2.2-2-5.3-2.3-7.7-4c-0.6-0.4-1.1-0.9-1.6-1.3c-0.7-0.5-1.5-0.9-2.4-1.2
				c-1.6-0.7-3.2-1.2-4.8-1.6c-0.7-0.1-1.4-0.3-2.1-0.6c-0.7-0.3-1.2-0.7-1.7-1.3c-1.5-1.3-3-2.6-4.7-3.8
				c-5.5-3.9-11.6-8.3-17.9-10.4c-7.1-2.2-14.8-2.9-22.1-3.2c-2.1-0.1-4.2-0.1-6.3-0.1c-5.7,0-11.5,0.3-17,0.7"/>
		</defs>
		<clipPath id="SVGID_2_">
			<use xlink:href="#SVGID_1_"  style="overflow:visible;"/>
		</clipPath>
		<g class="st10">
			
				<linearGradient id="SVGID_3_" gradientUnits="userSpaceOnUse" x1="-10012.6641" y1="4207.4541" x2="-10011.6641" y2="4207.4541" gradientTransform="matrix(145.18 0 0 -145.18 1453764.125 610972.625)">
				<stop  offset="0" style="stop-color:#AD60A5"/>
				<stop  offset="0.28" style="stop-color:#B163A7"/>
				<stop  offset="0.56" style="stop-color:#BE6DAB"/>
				<stop  offset="0.85" style="stop-color:#D27DB3"/>
				<stop  offset="1" style="stop-color:#E088B8"/>
			</linearGradient>
			<rect x="92" y="109.3" class="st11" width="145.7" height="50.3"/>
		</g>
	</g>
</g>
<path class="st12" d="M119.6,136.2h-15.4c-0.3,0-0.5-0.2-0.5-0.5c0,0,0,0,0-0.1l0.4-3.9c0-0.2,0.2-0.4,0.5-0.4H120
	c0.3,0,0.5,0.2,0.5,0.5c0,0,0,0,0,0.1l-0.4,3.9C120.1,136,119.9,136.2,119.6,136.2"/>
<path class="st13" d="M235.6,138.5c-0.2-0.6-0.5-1.2-1-1.6c-0.5-0.5-1-0.9-1.5-1.2c-0.5-0.4-1-0.2-1.5,0.2c-0.4,0.2-1,0.6-0.9,1
	c0.2,0.3,0.4,0.7,0.7,0.9c0.3,0.3,2.3,2.1,2.8,2.6c0.3,0.2,0.9,0.9,1.2,0.5c0.1-0.3,0.2-0.7,0.2-1
	C235.8,139.5,235.7,139,235.6,138.5"/>
<path class="st5" d="M137.9,156.1c-1-0.6-1.9-1.2-2.8-1.9c-1.3-1.1-2.8-1.9-4.4-2.2c-1.9-0.4-3.9-0.7-5.8-0.7
	c-2.2-0.2-23.3-0.4-29.2-0.1c-0.9,0-1.7,0.2-2.4,0.7c-1,1.1-0.4,3,0.5,4.4c0.6,0.3,1.2,0.5,1.9,0.5c1.6,0.3,3.2,0.7,4.8,1
	c1.8,0.3,3.5,0.4,5.3,0.3H146C145,157.8,140.1,157.2,137.9,156.1"/>
<g>
	<g>
		<defs>
			<path id="SVGID_4_" d="M149.8,128.1c0.5,0.3,3.9,0.5,4.2,0.5c2.6,0.1,18.1,1.3,23.3,1.8c7.2,0.7,24.4,3.1,32.1,4.4
				c2.6,0.6,5.2,1.1,7.8,1.4c0.4,0,3.3,0.1,3.1-0.6c-0.1-0.4-4.1-1.2-6.4-1.6c-7.3-1.2-26-3.5-37.5-4.5c-5.1-0.4-17-1.4-22.8-1.5
				c-0.2,0-1.6-0.1-2.7-0.1C150.2,127.9,149.5,127.9,149.8,128.1"/>
		</defs>
		<clipPath id="SVGID_5_">
			<use xlink:href="#SVGID_4_"  style="overflow:visible;"/>
		</clipPath>
		<g class="st14">
			
				<linearGradient id="SVGID_6_" gradientUnits="userSpaceOnUse" x1="-9960.5898" y1="4213.5771" x2="-9959.5898" y2="4213.5771" gradientTransform="matrix(81.88 0 0 -81.88 815683.8125 345139.75)">
				<stop  offset="0" style="stop-color:#AD60A5"/>
				<stop  offset="1" style="stop-color:#AD60A5"/>
			</linearGradient>
			<rect x="149.5" y="127.8" class="st15" width="71" height="8.5"/>
		</g>
	</g>
</g>
<g>
	<g>
		<defs>
			<path id="SVGID_7_" d="M176.6,148.3c-0.8,0.1-1.6,0.3-2.4,0.6c-0.8,0.6,0.8,0.8,1.2,0.8c1.4,0.1,37.1,2.5,38.8,2.6
				c0.6,0,1.8,0,1.5-0.5c-0.4-0.6-1.6-0.9-2.5-1c-10.6-1.6-21.2-2.6-31.9-2.8C179.8,148,178.2,148.1,176.6,148.3"/>
		</defs>
		<clipPath id="SVGID_8_">
			<use xlink:href="#SVGID_7_"  style="overflow:visible;"/>
		</clipPath>
		<g class="st16">
			
				<linearGradient id="SVGID_9_" gradientUnits="userSpaceOnUse" x1="-9846.1084" y1="4228.0293" x2="-9845.1084" y2="4228.0293" gradientTransform="matrix(41.8 0 0 -41.8 411745 176881.7656)">
				<stop  offset="0" style="stop-color:#AD60A5"/>
				<stop  offset="1" style="stop-color:#AD60A5"/>
			</linearGradient>
			<rect x="173.4" y="148" class="st17" width="42.6" height="4.3"/>
		</g>
	</g>
</g>
<path class="st18" d="M121.1,129.6c-0.2-0.3-1.2-0.2-1.5-0.2c-3.2,0-10.5,0.1-13.1,0.1c-0.8,0-1.3,0-1.6,0.3s1.4,0.4,1.8,0.4
	c4.3,0.2,10.4,0.3,13.2,0.3C121.2,130.5,121.5,130.3,121.1,129.6"/>
<g>
	<g>
		<defs>
			<path id="SVGID_10_" d="M170.1,113.1c-4,0.7-7.8,2.2-11.3,4.2c-0.8,0.5-1.6,0.9-2.4,1.4c-1,0.7-0.2,1.2,0.6,1.7
				c1.6,1.1,3.3,1.9,5.1,2.6c1.9,0.8,3.8,1.4,5.8,1.8c2,0.3,4,0.4,6,0.6c4.3,0.5,23.7,2.4,33.4,3.4c1.2,0.1,2.5,0.1,3.7-0.1
				c0.3,0,2.7-0.3,2.1-1.1c-2.3-3-5.8-5.3-8.9-7.3c-3.1-2.1-6.4-3.8-9.9-5.2c-3.8-1.4-7.8-2.3-11.9-2.4c-1.5-0.1-3-0.1-4.5-0.1
				C175.4,112.4,172.7,112.6,170.1,113.1"/>
		</defs>
		<clipPath id="SVGID_11_">
			<use xlink:href="#SVGID_10_"  style="overflow:visible;"/>
		</clipPath>
		<g class="st19">
			
				<linearGradient id="SVGID_12_" gradientUnits="userSpaceOnUse" x1="-10197.501" y1="4171.103" x2="-10196.501" y2="4171.103" gradientTransform="matrix(-81.0334 -9.075 -9.075 81.0334 -788298.1875 -430419.9375)">
				<stop  offset="0" style="stop-color:#2E678F"/>
				<stop  offset="0.36" style="stop-color:#244E73"/>
				<stop  offset="0.76" style="stop-color:#1C385B"/>
				<stop  offset="1" style="stop-color:#193052"/>
			</linearGradient>
			<polygon class="st20" points="153.6,128.8 156.2,106 215.7,112.7 213.1,135.4 			"/>
		</g>
	</g>
</g>
<g>
	<g>
		<defs>
			<path id="SVGID_13_" d="M146.6,112.6c-5.4,0.1-18.1,0.2-22.5,1.7c-3.1,1.1-6.2,2.4-9.1,3.9c-2.4,1.2-7.9,4.3-7.9,4.3l5.8-0.3
				c1.8-0.1,13-0.2,16.4-0.2s6.9,0,10.4-0.1c0.8,0,1.5-0.2,2.3-0.4c0.8-0.3,1.6-0.7,2.4-1.2c1.5-0.8,3-1.8,4.5-2.6
				c1.7-0.9,3.5-1.8,5.3-2.7c0.9-0.4,1.8-0.8,2.7-1.2l1.4-0.6c0,0-2-0.2-3-0.2c-1.7-0.1-6.5-0.3-8.4-0.3L146.6,112.6"/>
		</defs>
		<clipPath id="SVGID_14_">
			<use xlink:href="#SVGID_13_"  style="overflow:visible;"/>
		</clipPath>
		<g class="st21">
			
				<linearGradient id="SVGID_15_" gradientUnits="userSpaceOnUse" x1="-10197.501" y1="4171.0669" x2="-10196.501" y2="4171.0669" gradientTransform="matrix(-81.0334 -9.075 -9.075 81.0334 -788295.0625 -430414.0625)">
				<stop  offset="0" style="stop-color:#2E678F"/>
				<stop  offset="0.36" style="stop-color:#244E73"/>
				<stop  offset="0.76" style="stop-color:#1C385B"/>
				<stop  offset="1" style="stop-color:#193052"/>
			</linearGradient>
			<polygon class="st22" points="106,122.3 107.7,106.9 159.4,112.7 157.7,128.1 			"/>
		</g>
	</g>
</g>
<g>
	<g>
		<defs>
			<path id="SVGID_16_" d="M159.5,118.6c-0.3,0.1-0.6,0.3-0.8,0.5c-0.2,0.3,0.1,1,0.2,1.3c0.2,0.5,0.3,1,0.6,1.5
				c0.9,0.4,1.8,0.8,2.7,1.1c1.2,0.4,2.4,0.9,3.6,1.2v-0.1c-0.1-0.9-0.5-1.7-1.1-2.2c-0.9-0.7-3-2.4-4-3c-0.2-0.2-0.5-0.3-0.7-0.3
				C159.7,118.6,159.6,118.6,159.5,118.6"/>
		</defs>
		<clipPath id="SVGID_17_">
			<use xlink:href="#SVGID_16_"  style="overflow:visible;"/>
		</clipPath>
		<g class="st23">
			
				<linearGradient id="SVGID_18_" gradientUnits="userSpaceOnUse" x1="-10246.1602" y1="4178.354" x2="-10245.1602" y2="4178.354" gradientTransform="matrix(-58.84 0 0 58.84 -602646.375 -245733)">
				<stop  offset="0" style="stop-color:#2FB4BD"/>
				<stop  offset="1" style="stop-color:#244F79"/>
			</linearGradient>
			<rect x="158.5" y="118.5" class="st24" width="7.2" height="5.7"/>
		</g>
	</g>
</g>
<g>
	<g>
		<defs>
			<path id="SVGID_19_" d="M171,115c-2.1,0.2-4.2,0.6-6.3,1.2c-0.6,0.3,0,0.7,0.4,1c0.9,0.9,3.2,3.3,3.8,3.8c0.4,0.3,0.5-0.5,0.7-1
				c0.5-0.9,1.1-1.7,1.8-2.5c0.6-0.4,3-0.3,3.6-0.3c0.2,0,0.7,0.1,0.9-0.2c0.1-0.2,0.1-0.6,0.2-0.7s1.4-0.1,1.4-0.4
				c0-0.2-0.1-0.4-0.2-0.5c-0.5-0.1-1.1-0.1-1.6-0.1c-0.9,0.1-1.7,0-2.6-0.3c-0.3-0.1-0.6-0.1-0.9-0.1S171.5,114.9,171,115"/>
		</defs>
		<clipPath id="SVGID_20_">
			<use xlink:href="#SVGID_19_"  style="overflow:visible;"/>
		</clipPath>
		<g class="st25">
			
				<linearGradient id="SVGID_21_" gradientUnits="userSpaceOnUse" x1="-10246.1602" y1="4178.3545" x2="-10245.1602" y2="4178.3545" gradientTransform="matrix(-58.84 0 0 58.84 -602646.125 -245736.2656)">
				<stop  offset="0" style="stop-color:#2FB4BD"/>
				<stop  offset="1" style="stop-color:#244F79"/>
			</linearGradient>
			<rect x="164.2" y="114.9" class="st26" width="13.4" height="6.4"/>
		</g>
	</g>
</g>
<g>
	<g>
		<defs>
			<path id="SVGID_22_" d="M177.4,118.8c0,0.1,0.2,0.2,0.3,0.3c0.2,0.2,0.3,0.4,0.4,0.6c0.2,0.4,0.5,2.8,0,3.7s-1.3,0.7-2.7,0.7H173
				c-0.3,0-0.7,0-0.6,0.3c0.1,0.3,0.6,0.7,0.9,0.9l0.7,0.1l7.3,0.8c-0.5-2.2-1.2-4.4-2-6.6c-0.2-0.4-0.3-0.9-0.8-1h-0.3
				C177.8,118.6,177.3,118.6,177.4,118.8"/>
		</defs>
		<clipPath id="SVGID_23_">
			<use xlink:href="#SVGID_22_"  style="overflow:visible;"/>
		</clipPath>
		<g class="st27">
			
				<linearGradient id="SVGID_24_" gradientUnits="userSpaceOnUse" x1="-10246.1602" y1="4178.3457" x2="-10245.1602" y2="4178.3457" gradientTransform="matrix(-58.84 0 0 58.84 -602645.125 -245731.4688)">
				<stop  offset="0" style="stop-color:#2FB4BD"/>
				<stop  offset="1" style="stop-color:#244F79"/>
			</linearGradient>
			<rect x="172.4" y="118.6" class="st28" width="8.9" height="7.6"/>
		</g>
	</g>
</g>
<g>
	<g>
		<defs>
			<path id="SVGID_25_" d="M186,115.5c-0.1,0-0.2,0.1-0.3,0.2c-0.2,0.1-0.4,0.2-0.6,0.1h-0.2c-0.3,0-0.9,0-1,0.1s0.3,0.7,0.4,1
				c1.5,2.9,2.3,4.9,3.1,6.8c0.1,0.4,0.3,0.8,0.5,1.2c0.1,0.2,0.5-0.3,0.7-0.5c1.3-0.9,2.9-1.2,4.4-0.8c0.6,0.2,1.2,0.5,1.7,0.9
				c0.6,0.2,1.2,0.3,1.8,0.3c1.6,0.2,3.2,0.6,4.8,1.1c0.4,0.2,0.8,0.4,1.2,0.6c1.1,0.1,2.2,0.2,3.3,0.2c0.7,0,1-0.2,0.8-0.4
				c-1.3-1.3-2.8-2.4-4.4-3.4c-2.3-1.6-9.1-5.8-14.8-7.1C187,115.7,186.5,115.6,186,115.5L186,115.5"/>
		</defs>
		<clipPath id="SVGID_26_">
			<use xlink:href="#SVGID_25_"  style="overflow:visible;"/>
		</clipPath>
		<g class="st29">
			
				<linearGradient id="SVGID_27_" gradientUnits="userSpaceOnUse" x1="-10246.1602" y1="4178.3481" x2="-10245.1602" y2="4178.3481" gradientTransform="matrix(-58.84 0 0 58.84 -602645.5 -245732.8906)">
				<stop  offset="0" style="stop-color:#2FB4BD"/>
				<stop  offset="1" style="stop-color:#244F79"/>
			</linearGradient>
			<rect x="183.9" y="115.5" class="st30" width="23" height="11.2"/>
		</g>
	</g>
</g>
<g>
	<g>
		<defs>
			<path id="SVGID_28_" d="M190.7,124.6c-0.9,0.3-1.8,0.9-2.3,1.7c-0.1,0.1-0.2,0.3-0.3,0.5l3.3,0.3c0-0.5,0-1,0.2-1.5
				c0.1-0.2,0.9-0.9,0.6-1.2c-0.1-0.1-0.2-0.1-0.3-0.1C191.5,124.5,191.1,124.5,190.7,124.6"/>
		</defs>
		<clipPath id="SVGID_29_">
			<use xlink:href="#SVGID_28_"  style="overflow:visible;"/>
		</clipPath>
		<g class="st31">
			
				<linearGradient id="SVGID_30_" gradientUnits="userSpaceOnUse" x1="-10246.1602" y1="4178.3423" x2="-10245.1602" y2="4178.3423" gradientTransform="matrix(-58.84 0 0 58.84 -602644.75 -245727.8438)">
				<stop  offset="0" style="stop-color:#2FB4BD"/>
				<stop  offset="1" style="stop-color:#244F79"/>
			</linearGradient>
			<rect x="188.1" y="124.4" class="st32" width="4.4" height="2.8"/>
		</g>
	</g>
</g>
<g>
	<g>
		<defs>
			<path id="SVGID_31_" d="M148.5,115.8c-0.4,0.4-0.6,0.9-0.6,1.5c0,0.2,0.5-0.1,0.6-0.2c0.2-0.1,1.8-0.8,2.2-1.1
				c0.4-0.2,0.3-0.5,0.1-0.5h-0.1C149.9,115.5,149.2,115.6,148.5,115.8"/>
		</defs>
		<clipPath id="SVGID_32_">
			<use xlink:href="#SVGID_31_"  style="overflow:visible;"/>
		</clipPath>
		<g class="st33">
			
				<linearGradient id="SVGID_33_" gradientUnits="userSpaceOnUse" x1="-10246.1602" y1="4178.3364" x2="-10245.1602" y2="4178.3364" gradientTransform="matrix(-58.84 0 0 58.84 -602643.8125 -245736.7656)">
				<stop  offset="0" style="stop-color:#2FB4BD"/>
				<stop  offset="1" style="stop-color:#244F79"/>
			</linearGradient>
			<rect x="147.8" y="115.6" class="st34" width="3.2" height="1.9"/>
		</g>
	</g>
</g>
<g>
	<g>
		<defs>
			<path id="SVGID_34_" d="M141.1,115.5c-3.4,0.2-6.7,0.7-10,1.5c-0.6,0.1-1.3,0.3-1.9,0.5c-0.3,0.1-0.9,0.4-0.4,0.6
				c0.4,0.1,1,0.2,1.5,0.3c1,0.4,1.7,1.3,1.9,2.4c0.1,0.6,0,0.8,0.7,0.8c1.4,0,2.3,0,3.7,0c0.6,0,0.7,0,0.9-0.5
				c0.1-0.6,0.4-1.2,0.6-1.8c0.5-0.7,2.4-0.5,2.7-0.4s0.8,0.4,0.9,0.4c0.2,0,0.2-0.1,0.3-0.6c0.3-1,0.4-2,0.4-3
				c0-0.1-0.3-0.1-0.5-0.1S141.3,115.5,141.1,115.5"/>
		</defs>
		<clipPath id="SVGID_35_">
			<use xlink:href="#SVGID_34_"  style="overflow:visible;"/>
		</clipPath>
		<g class="st35">
			
				<linearGradient id="SVGID_36_" gradientUnits="userSpaceOnUse" x1="-10246.1602" y1="4178.3501" x2="-10245.1602" y2="4178.3501" gradientTransform="matrix(-58.84 0 0 58.84 -602645.6875 -245735.5781)">
				<stop  offset="0" style="stop-color:#2FB4BD"/>
				<stop  offset="1" style="stop-color:#244F79"/>
			</linearGradient>
			<rect x="128.3" y="115.5" class="st36" width="14.3" height="6.1"/>
		</g>
	</g>
</g>
<g>
	<g>
		<defs>
			<path id="SVGID_37_" d="M125.8,118.8c-1.6,0.5-4.3,1.6-5,1.9c-0.3,0.1-1,0.4-1,0.6s0.5,0.3,0.8,0.3h4.5c0.2,0,0.4-0.1,0.5-0.3
				c0.1-0.2,0.5-2.2,0.5-2.3s0-0.3-0.1-0.3C125.9,118.8,125.9,118.8,125.8,118.8"/>
		</defs>
		<clipPath id="SVGID_38_">
			<use xlink:href="#SVGID_37_"  style="overflow:visible;"/>
		</clipPath>
		<g class="st37">
			
				<linearGradient id="SVGID_39_" gradientUnits="userSpaceOnUse" x1="-10246.1602" y1="4178.3442" x2="-10245.1602" y2="4178.3442" gradientTransform="matrix(-58.84 0 0 58.84 -602645.125 -245733.6719)">
				<stop  offset="0" style="stop-color:#2FB4BD"/>
				<stop  offset="1" style="stop-color:#244F79"/>
			</linearGradient>
			<rect x="119.7" y="118.7" class="st38" width="6.4" height="2.8"/>
		</g>
	</g>
</g>
<path class="st0" d="M213.2,128.1L213.2,128.1L213.2,128.1l-0.2,0.1c-0.2,0.1-0.4,0.2-0.6,0.2h-0.1h-0.1c-0.4,0.1-0.7,0.1-1.1,0.2
	c-1.2,0.2-2.5,0.2-3.7,0.1l-0.9-0.1c-10-1-28.4-2.9-32.5-3.4c-2-0.2-4-0.3-6-0.6c-2-0.4-4-1-5.8-1.8c-1.8-0.6-3.5-1.5-5.1-2.6
	c-0.8-0.5-1.6-1-0.6-1.7l0,0c1.8,1.3,3.6,2.4,5.6,3.4c2.1,0.8,4.2,1.5,6.4,2c2,0.4,5.3,0.6,7.3,0.8c4.4,0.4,22.4,2.5,32.2,3.6
	c1.2,0.1,2.5,0.1,3.7-0.1C212.2,128.2,212.7,128.1,213.2,128.1"/>
<g>
	<g>
		<defs>
			<path id="SVGID_40_" d="M210,122.9c-1.1,0-1.1,0.7-1.1,1.5c0,1.3,0.1,2.7,0.3,4c0,0.2,0.2,0.3,0.3,0.4c0.8,0.1,1.6,0,2.3-0.1
				c1.4-0.3,4.1-1.2,3.4-3.2C214.6,123.5,211.4,122.9,210,122.9L210,122.9"/>
		</defs>
		<clipPath id="SVGID_41_">
			<use xlink:href="#SVGID_40_"  style="overflow:visible;"/>
		</clipPath>
		<g class="st39">
			
				<linearGradient id="SVGID_42_" gradientUnits="userSpaceOnUse" x1="-8572.0322" y1="4388.375" x2="-8571.0322" y2="4388.375" gradientTransform="matrix(6.48 0 0 -6.48 55784.5312 28562.5195)">
				<stop  offset="0" style="stop-color:#AD60A5"/>
				<stop  offset="0.28" style="stop-color:#B163A7"/>
				<stop  offset="0.56" style="stop-color:#BE6DAB"/>
				<stop  offset="0.85" style="stop-color:#D27DB3"/>
				<stop  offset="1" style="stop-color:#E088B8"/>
			</linearGradient>
			<rect x="209" y="122.9" class="st40" width="7.1" height="5.9"/>
		</g>
	</g>
</g>
<path class="st41" d="M214,125.3c-0.3-1.3-1.8-1.9-3.1-2c-0.3-0.1-0.7-0.1-1,0c-0.3,0.2-0.2,0.5-0.2,0.8c0,0.8,0.1,2.4,0.1,3.2
	c0.1,0.7,0.1,1,0.6,1c0.6,0.1,1.2,0,1.8-0.1C213.4,127.9,214.3,126.6,214,125.3"/>
<path class="st12" d="M164.8,149.1c0-0.1-0.2-0.1-0.3-0.1s-0.1,0.1-0.1,0.2c0,0.2,0,0.4,0,0.6c0,4.3-2.1,7.9-4.7,7.9
	c-1,0-1.9-0.5-2.5-1.2c-0.1-0.1-0.2-0.1-0.3,0c0,0-0.1,0.1-0.1,0.2c0.5,3.4,2.4,5.8,4.5,5.8c2.6,0,4.7-3.5,4.7-7.9
	C166.1,152.6,165.7,150.8,164.8,149.1"/>
<path class="st12" d="M229.6,149.1c0-0.1-0.2-0.1-0.3-0.1s-0.1,0.1-0.1,0.2c0,0.2,0,0.4,0,0.6c0,4.3-2.1,7.9-4.7,7.9
	c-1,0-1.9-0.5-2.5-1.2c-0.1-0.1-0.2-0.1-0.3,0c0,0-0.1,0.1-0.1,0.2c0.5,3.4,2.4,5.8,4.6,5.8c2.6,0,4.7-3.5,4.7-7.9
	C231,152.6,230.5,150.8,229.6,149.1"/>
<path class="st42" d="M97.1,147.8c-0.2-0.3-0.5-0.5-0.8-0.7c-0.4-0.2-0.9-0.2-1.4-0.2H93c-0.5,0-0.5,0-0.5,0.5s-0.1,0.7,0.4,0.8
	s2.7,0,3.4,0C96.5,148.1,97.5,148.2,97.1,147.8"/>
<path class="st42" d="M141,147c-0.1-0.2-1.4-0.2-1.6-0.2c-2.9,0-10.5,0.1-13.1,0.1c-1.3,0-2,0-2.7,0.7c-0.4,0.4-0.1,0.5,0.4,0.5
	h14.2c0.6,0.1,1.3,0,1.9-0.3C140.2,147.8,141.2,147.4,141,147"/>
<path class="st42" d="M104.9,129.5c-1.2,0-1.7,0-2.9,0c-0.6,0-1.1-0.1-1.6-0.2c-0.9-0.2-1.7-0.5-2.6-0.8c-0.4-0.1-0.7-0.3-1-0.7
	c-0.3-0.4-0.1-0.6-0.7-0.3c-1.3,0.6-1.4,1.7-1.5,3.1c-0.1,1.2,0,2.4,1.3,2.5s2.6,0.2,3.9,0.1c1.3-0.1,2.5-0.7,3.4-1.7
	c0.4-0.4,1.1-0.9,1.6-1.3C105,130.1,105.7,129.5,104.9,129.5"/>
<path class="st42" d="M150.5,128.2c-0.2-0.4-1.3-0.5-2.2-0.7c-1.6-0.3-3.7-0.5-5.4-0.8c-1.7-0.4-3.5-0.6-5.3-0.4
	c-2.5,0.3-4.9,1-7.4,1.4c-2.5,0.4-6.5,1-8.2,1.3c-0.7,0.1-1.4,0.2-1.6,0.4c-0.3,0.4,0.6,1.1,0.9,1.3c0.8,0.7,1.6,1.4,2.5,2
	c1,0.4,2,0.6,3.1,0.4c5.2-0.1,10.1-0.4,15-0.6c1.6,0,3.2-0.2,4.7-0.5c1.1-0.6,2-1.4,2.9-2.2C149.8,129.6,150.7,128.7,150.5,128.2"/>
<path class="st43" d="M141.5,131.5c-0.4-0.6-1.1-1-1.8-1.1c-0.8-0.1-1.7-0.1-2.5,0c-2,0.1-9.7,0.8-11.6,0.9c-0.8,0-2.5,0-1.2,0.8
	c1,0.6,2.9,0.5,4.4,0.4c1.8-0.1,9.3-0.4,11.3-0.5C140.3,132.1,141.9,132.1,141.5,131.5"/>
<path class="st43" d="M100.6,131.4c-1-0.1-3.6-0.3-6.1-0.5c-0.1,0.5,0,1.1,0.2,1.6c1.2,0.1,2.2,0.1,2.7,0.1c1.5,0,3.4,0.2,4.4-0.4
	C103.2,131.4,101.5,131.5,100.6,131.4"/>
<path class="st44" d="M171,131.9h-0.1l-4.7-0.2c-0.3,0-0.6-0.1-0.9-0.1c-0.4-0.2-0.7-0.5-0.9-0.9c0-0.1,0-0.2,0.1-0.2l0,0
	c0.1,0,0.2,0,0.2,0.1c0.1,0.3,0.4,0.6,0.7,0.7c0.2,0.1,0.5,0.1,0.8,0.1l4.7,0.2c0.1,0,0.2,0,0.3,0c0.1-0.1,0.2-0.2,0.2-0.4
	c0-0.1,0-0.2,0.1-0.2s0.2,0,0.2,0.1l0,0c0,0.3-0.1,0.6-0.4,0.7C171.2,131.9,171.1,131.9,171,131.9"/>
<path class="st44" d="M197.2,134.6h-0.3l-3.7-0.2c-0.4,0-0.7-0.1-1.1-0.3c-0.2-0.2-0.4-0.4-0.5-0.7c0-0.1,0-0.2,0.1-0.2s0.2,0,0.2,0
	l0,0c0.1,0.2,0.3,0.4,0.5,0.6c0.3,0.2,0.6,0.2,0.9,0.2l3.7,0.2c0.2,0,0.4,0,0.7,0c0.2,0,0.3-0.2,0.4-0.4c0-0.1,0.1-0.1,0.2-0.1l0,0
	c0.1,0,0.1,0.1,0.1,0.2l0,0c-0.1,0.3-0.3,0.5-0.6,0.6C197.5,134.6,197.3,134.6,197.2,134.6"/>
<path class="st44" d="M105.3,141.4c-2,0-3.5,0-4,0c-0.8,0-1.7-0.2-2.4-0.5c-0.8-0.3-1.4-0.9-1.6-1.7c-0.2-0.7-0.2-1.3-0.1-2
	c0-1.8-0.3-3.6-0.9-5.3l-0.1-0.4c-0.3-1.1-0.5-2.7,0.5-3.7c0.1-0.1,0.2-0.1,0.2,0s0,0.1,0,0.2c-0.9,0.9-0.7,2.3-0.4,3.4l0.1,0.4
	c0.6,1.7,0.9,3.5,0.9,5.4c-0.1,0.6,0,1.3,0.1,1.9c0.2,0.7,0.7,1.3,1.4,1.5c0.7,0.3,1.5,0.4,2.3,0.4c1.6,0.1,13.8,0,18.7-0.1
	c1.8,0,3.9,0,5.6-1.2c0.8-0.6,1.5-1.2,2.1-1.9v-0.1c1.2-1.3,2.1-2.9,2.6-4.6c0.1-0.4,0.2-0.9,0.3-1.2c0.3-1.8,1.1-3.4,2.2-4.8
	c0.2-0.3,0.2-0.7,0.2-1.1c-0.1-0.6,0.1-1.2,0.4-1.6c0.3-0.2,0.7-0.3,1.1-0.2c1.8,0.3,6.5-2.6,6.8-2.9c0.1-0.1,0.2,0,0.2,0
	s0,0.1,0,0.2c-0.1,0.2-4.6,3-6.8,3h-0.3c-0.3-0.1-0.6,0-0.8,0.1c-0.3,0.3-0.3,0.8-0.3,1.4c0.1,0.4,0,0.9-0.2,1.3
	c-1.1,1.3-1.9,2.9-2.2,4.6c-0.1,0.4-0.2,0.8-0.4,1.3c-0.6,1.7-1.5,3.3-2.7,4.6v0.1c-0.6,0.7-1.4,1.4-2.2,2c-1.7,1.2-3.9,1.2-5.7,1.2
	C116.7,141.4,109.8,141.5,105.3,141.4"/>
<path class="st44" d="M218.4,156.3H176c-1.5,0-3.1,0-3.4-2.8c0-0.6-0.1-1.3-0.1-2c0-0.5,0-1-0.1-1.4c-0.3-2.2-0.9-4.3-1.8-6.3
	c-0.8-1.4-1.6-2.7-2.6-4c-0.6-0.8-1.1-1.7-1.5-2.5c-0.1-0.2-0.2-0.5-0.3-0.6c-2.3-4.1-4.9-8-8-11.6l-0.7-0.9l-0.3-0.4
	c-0.8-0.8-1.4-1.8-1.9-2.8c-0.2-0.7-0.2-1.5,1.1-2.4c0.1,0,0.1,0,0.2,0c0.1,0.1,0.1,0.1,0,0.2c-1.2,0.8-1.2,1.4-1,2.1
	c0.4,1,1,1.9,1.7,2.7l0.3,0.4l0.7,0.9c3.1,3.6,5.7,7.5,8,11.6c0.1,0.2,0.2,0.4,0.3,0.6c0.4,0.9,0.9,1.7,1.5,2.5
	c1,1.3,1.8,2.7,2.6,4.1c0.9,2,1.6,4.2,1.8,6.4c0,0.4,0,0.9,0.1,1.4c0,0.7,0.1,1.4,0.1,2c0.2,2.5,1.6,2.5,3.1,2.5h42.5
	c0.1,0,0.1,0.1,0.1,0.1C218.6,156.3,218.5,156.3,218.4,156.3"/>
<path class="st44" d="M190.8,156.3L190.8,156.3c-0.1,0-0.1-0.1-0.1-0.2c0.1-0.8,0.1-1.5,0.2-2.2s0.1-1.3,0.2-2.1
	c0.1-0.7,0.1-1.4,0-2.2c-0.1-0.5-0.1-1.1-0.1-1.6c0-1.1,0.1-2.2,0.3-3.3c0.2-1.5,0.3-3,0.3-4.4c-0.1-2.6-0.6-5.2-1.6-7.7
	c-0.1-0.4-0.2-0.8-0.3-1.2c-0.1-0.7-0.3-1.3-0.6-1.9l-0.3-0.5c-0.5-0.9-1.1-1.8-1.8-2.7c-0.1-0.1-0.1-0.1,0-0.2s0.2-0.1,0.2,0
	c0.6,0.9,1.2,1.8,1.8,2.7c0.1,0.2,0.2,0.3,0.3,0.5c0.3,0.6,0.6,1.3,0.7,2c0.1,0.4,0.2,0.8,0.3,1.2c1,2.5,1.5,5.1,1.6,7.8
	c0,1.5-0.1,3-0.3,4.5c-0.1,1.1-0.2,2.2-0.3,3.3c0,0.5,0,1.1,0.1,1.6c0.1,0.7,0.1,1.5,0.1,2.2c-0.1,0.7-0.1,1.4-0.2,2
	c0,0.6-0.1,1.4-0.2,2.2C190.9,156.2,190.9,156.3,190.8,156.3"/>
<path class="st44" d="M215.6,156.3L215.6,156.3c-0.1,0-0.1-0.1-0.1-0.2c0.9-4.9,1.5-9.8,1.8-14.8c0-1.2-0.1-2.4-0.4-3.5l-0.1-0.3
	c-0.1-0.4-0.2-0.8-0.2-1.2V136c0-0.4,0-0.9,0-1.2c-0.3-1-0.8-2-1.4-2.8l-0.1-0.1c-0.5-0.8-1.2-1.7-1.8-2.5l-0.7-0.9
	c-0.1-0.1-0.1-0.1,0-0.2l0,0c0.1-0.1,0.2-0.1,0.2,0l0.6,0.9c0.6,0.8,1.3,1.8,1.8,2.5l0.1,0.1c0.7,0.9,1.2,1.9,1.5,3
	c0,0.4,0,0.8,0,1.3c0,0.1,0,0.3,0,0.4c0,0.4,0.1,0.8,0.2,1.1c0,0.1,0.1,0.2,0.1,0.3c0.3,1.2,0.4,2.4,0.4,3.6
	C217.2,146.5,216.6,151.4,215.6,156.3c0,0.1-0.1,0.1-0.1,0.1"/>
<g>
	<g>
		<defs>
			<path id="SVGID_43_" d="M243.2,113.3c0,62.6-50.7,113.3-113.3,113.3S16.6,175.9,16.6,113.3S67.4,0,129.9,0
				C192.5,0,243.2,50.7,243.2,113.3L243.2,113.3"/>
		</defs>
		<clipPath id="SVGID_44_">
			<use xlink:href="#SVGID_43_"  style="overflow:visible;"/>
		</clipPath>
		<g class="st45">
			<path class="st46" d="M64.4,133.5c1.1,2.3,0.9,4.9-0.4,7.1c0,0-4.1,5.7-15,0.1c-10.9-5.6-8.1-13.4-6-13.9l12-3.1
				c2.3-0.4,4.7,0.7,5.8,2.8L64.4,133.5z"/>
			<path class="st46" d="M56.2,157c1.1,2.3,0.9,4.9-0.4,7.1c0,0-3.4,4.8-13.2-0.3s-7.1-12-5-12.6l9.9-2.5c2.1-0.5,4.7-4.3,5.8-2.2
				L56.2,157z"/>
			<path class="st46" d="M60.4,177.7c1.1,2.3,0.9,4.9-0.4,7.1c0,0-2.7,3.8-11.3-0.6c-8.6-4.4-6-10.6-3.9-11.1l7.8-2
				c2.3-0.4,4.7,0.7,5.8,2.8L60.4,177.7z"/>
			<path class="st47" d="M142.5,165l-0.1,2.2l-0.8,16.8l-2.1,44.4l-0.2,5.4h-30.9c-1-2.2-2-4.5-3-6.8c-1-2.4-1.9-4.9-2.7-7.4
				c-1.4-4.1-2.6-8.3-3.7-12.4l-0.1-0.5c-0.2-0.9-0.5-1.8-0.7-2.6V204c-0.5-1.9-0.9-3.7-1.3-5.6c-0.2-0.9-0.4-1.8-0.6-2.6
				c-1.9-8.9-3.2-17.1-4-23.3l0,0c-0.1-0.9-0.2-1.8-0.3-2.7l0,0c-0.1-0.9-0.2-1.8-0.3-2.5c-0.4-3.8-0.6-6-0.6-6l13.1,1l4.2,0.3l0,0
				l2.3,0.2l0,0l10.5,0.8l7.3,0.5l4.7,0.3l2,0.1L142.5,165z"/>
			<path class="st48" d="M174.9,233.8h-24.7l-3.3-1.2c-2.8-0.7-5.3-2.1-7.2-4.2c-2.4-2.4-4-5.6-4.4-9l-2-20.8c0-0.4,0-0.7-0.1-1.1
				c-0.4-3-1-6-1.8-8.9c-0.6-2.2-1.2-4.3-1.9-6.3l-0.1-0.2c-0.1-0.2-0.2-0.5-0.2-0.7c-0.2-0.6-0.5-1.2-0.7-1.8
				c-0.1-0.1-0.1-0.3-0.2-0.4c-0.2-0.5-0.4-0.9-0.6-1.4l-0.4-1l-4.4-9.7l-1.7-3.7l-5.3-11.7c-0.2-0.5-0.4-1-0.7-1.6
				c-1.9-5-3.3-10.3-4.1-15.6c-0.1-0.4-0.1-0.8-0.2-1.2l0,0c-0.1-0.8-0.2-1.6-0.2-2.4v-0.5l-0.2-2.7l-0.6-9.2l-0.4-5.6l-0.7-10.5
				l-0.1-2.2l-0.3-3.7c-0.1-1.2,0-2.4,0.4-3.5c0.2-0.7,0.6-1.3,1-1.8c1.3-1.5,3.2-2.1,5.1-1.7c0.5,0.1,0.9,0.2,1.3,0.3l0.5,0.2
				c0.3,0.1,0.5,0.2,0.8,0.4l7-1.9l2.7-0.7l0.5-0.1l0.8,0.3c1.4,0.6,3,1.3,4.7,2l1.7,0.7c4.7,2.1,9.7,4.6,12,7.7l16.9,36.3
				c3.9,5.9,6.4,12.6,7.1,19.6l0.7,12.9l1.1,21.4L174.9,233.8z"/>
			<path class="st46" d="M161.8,155.9c-0.2,1.1-0.7,2.1-1.5,2.9c-3.6,4.6-6.9,9.5-9.7,14.6c-1.9,3.4-3,8.3-6.8,9.9
				c-3.8,1.6-9.2,0.8-14.5-1c-0.5-1.5-1.1-3-1.7-4.5l-11.9-26.1c-2.8-6.6-4.5-13.6-5.2-20.8l-1.8-28.6c0.3-0.8,0.5-1.7,0.8-2.5
				c1.2-3.8,2.7-7.6,5.3-10.5c0.2-0.3,0.5-0.5,0.7-0.8c3.1-3,8.2-4.4,11.8-2l7.1,3.7c0.1,0.1,0.1,0.2,0.2,0.4c1.1,2.1,2,4.4,2.5,6.7
				c2.7,9.9,5.2,20.1,8.6,29.8c3.5,10,11,16.9,15.4,26.3C161.6,154.2,161.8,155,161.8,155.9z"/>
			<path class="st46" d="M136.8,178c-1.3,0.5-2.6,2.6-3.7,5.4v0.1c-0.6,1.5-1.2,3.3-1.8,5.1c-1.1,3.8-2.1,8-2.9,11.6
				c-0.6,2.8-1.1,5.3-1.4,6.9l-0.2,1c-0.8,3.7-1.4,7.4-1.9,11.2c-0.6,4.8-1,9.6-1.4,14.5h-6.7c-2.1-1.7-4.3-3.2-6.6-4.7
				c-1.5-0.8-3.1-1.6-4.7-2.1c-1-2.4-1.9-4.9-2.7-7.4c-1.4-4.1-2.6-8.3-3.7-12.4l-0.1-0.5c-0.2-0.9-0.5-1.8-0.7-2.6V204
				c1.3-1.7,2.6-3.3,4.1-4.8c0.7-0.8,1.5-1.5,2.3-2.2c2.5-2.3,5.2-4.4,8-6.3c1.2-0.8,2.4-1.6,3.6-2.4c0.7-0.4,1.3-0.8,2-1.2
				c1.4-0.8,2.8-1.6,4.2-2.3c2-1.1,4.1-2.1,6.1-3l0.7-0.3l0.9-0.4c1-0.5,2.1-0.9,3.1-1.4C134.3,179.1,135.6,178.5,136.8,178z"/>
			<path class="st49" d="M133.5,75.8v131.6c0,0.1,0,0.2,0,0.3s0,0.2,0,0.3v0.1c0,0.1,0,0.1,0,0.2v0.1v0.1v0.1c0,0.1,0,0.2,0,0.2l0,0
				c0,0.1,0,0.2,0,0.3s-0.1,0.4-0.1,0.6v0.1c0,0.1,0,0.1,0,0.2l0,0c0,0.1,0,0.1,0,0.2v0.1c0,0.1,0,0.1-0.1,0.2l-0.1,0.2l-0.1,0.2
				c0,0.1,0,0.1,0,0.1l-0.1,0.2l-0.1,0.2c0,0.1,0,0.1-0.1,0.2v0.1v0.1l-0.1,0.2l-0.1,0.2l0,0c0,0.1-0.1,0.1-0.1,0.2
				c-0.1,0.3-0.2,0.5-0.4,0.8l-0.1,0.2c0,0.1-0.1,0.1-0.1,0.2c0,0.1-0.1,0.1-0.1,0.2c0,0,0,0,0,0.1l-0.1,0.1l-0.1,0.1
				c0,0,0,0.1-0.1,0.1c0,0,0,0.1-0.1,0.1l-0.1,0.1c-0.1,0.2-0.3,0.5-0.5,0.7l-0.1,0.2l-0.1,0.1l-0.1,0.1l-0.1,0.1l-0.1,0.2l-0.1,0.1
				l-0.2,0.2l-0.2,0.2l-0.2,0.2l-0.1,0.1l-0.4,0.4l-0.2,0.1l-0.2,0.1l-0.2,0.1l-0.2,0.1l0,0l-0.2,0.1l-0.1,0.1l-0.1,0.1l-0.1,0.1
				l-0.2,0.1l-0.4,0.2l-0.4,0.2l-0.2,0.1l-0.2,0.1l-0.2,0.1l-0.2,0.1l0,0l-0.4,0.1h0.4l-0.2,0.1h-0.2l0,0h-0.2h-0.2l0,0l-0.3,0.1
				h-0.3h-62c-0.9,0-1.8-0.1-2.7-0.4c-3.8-1.3-6.8-5.3-7.4-10.2c-0.1-0.6-0.1-1.2-0.1-1.9v-131c0-6.8,4.6-12.4,10.2-12.4h60.7
				c5.5,0,10.1,5.5,10.2,12.2V75.8z"/>
			<path class="st50" d="M133,107.4v99.7c0,6.9-4.6,12.4-10.2,12.4h-22.2c0.2-10.7,1.2-21.4,3.2-32C108.6,159.3,117.1,131,133,107.4
				z"/>
			<polygon class="st51" points="87,75.7 77.5,97.5 76.6,96.2 66.5,80.2 73.9,75.7 			"/>
			<path class="st52" d="M105.4,95.7c0,2.6,2.1,4.7,4.7,4.7c0.5,0,1.1-0.1,1.6-0.3h0.1l0.9-3.7l-5.3-4.5l0,0
				C106.2,92.7,105.4,94.1,105.4,95.7z"/>
			<path class="st51" d="M96.9,122.3L96.9,122.3L96.9,122.3l8.7,3.5l2-8.3l1.2-5.2l-0.1-0.1l0,0c-4.2-5.1-7.9-10.6-7.3-16.6
				c0.2-2.4,1.3-4.7,3-6.4l0,0L91.2,77.7l-0.6-0.5l-1.3-0.9l0,0L78.9,99.9l12.9,20.4L96.9,122.3z"/>
			<polygon class="st51" points="107.4,160.1 104.3,162.1 102.8,163 90.5,170.6 90.4,170.6 85.6,176.8 75.5,189.4 72,188.2 
				63.3,185.2 58.5,183.5 58.5,183.5 56.7,182.9 56.6,182.8 56.6,134.5 56.7,134.5 62.5,132.5 91.1,122.7 91.1,122.7 96.6,124.9 
				96.6,124.9 96.6,124.9 96.6,124.9 96.8,125.7 102.6,144.4 			"/>
			<polygon class="st51" points="69.2,75.7 56.7,83.2 56.6,83.3 56.6,75.7 			"/>
			<path class="st51" d="M67,85.3l-2.5-3.9l-7.8,4.7l-0.1,0.1v45.7h0.1l32.7-11.2L67,85.3z M59.1,97.9l-1.8-8.3l6.1-3.7l2,3.1
				l3.5,5.6L61.7,97L59.1,97.9z M59.9,102.6l10.5-3.5l12.5,19.8l-19.1,6.5L59.9,102.6z"/>
			<polygon class="st51" points="103.2,199.3 94.8,207.1 71.3,207.1 71.3,194.7 69.7,194.1 58.1,190.1 58.1,207.1 56.6,207.1 
				56.6,185.5 56.7,185.5 61.5,187.2 61.6,187.2 61.6,187.2 71.1,190.5 76.3,192.3 76.3,192.3 78.3,193 90.7,197.4 91.2,197.4 
				100.7,198.9 			"/>
			<polygon class="st51" points="98.3,207.1 128,207.1 128.4,207.1 128.4,179.1 128,179.4 			"/>
			<polygon class="st51" points="119,79.9 119,79.9 128,88.5 128.4,88.9 128.4,75.7 128,75.7 120,75.7 			"/>
			<path class="st51" d="M128,91.5l-0.6-0.3l-0.4-0.4l-2.6-2.5l-3-2.8l-3.1-2.9l0,0l-1.1,4.6l-0.6,2.7l-0.1,0.3
				c1.2,1.6,1.9,3.5,2.1,5.4c0.6,6.1-3.1,11.7-7.5,16.8l0,0l-1.2,4.9l-0.3,1.1l0,0l-2,8.2l2.6,1l1.7,0.7l0,0l6.4,2.5l1.5,0.6l0,0
				l8.1,3.1h0.1h0.3V91.7L128,91.5z M125,128.4l-3.2-1.2l-8.1-3.1l-2.8-1.1l2.7-11.2l4.4,1.6l7,2.4V128.4z"/>
			<polygon class="st51" points="127.8,137.1 106,128.7 106,128.7 99.3,126.1 102.1,135 117.7,185.7 117.7,185.7 127.4,176.7 
				128,176.5 128.4,176.3 128.4,137.1 128,137.1 			"/>
			<path class="st51" d="M112.5,87.4L112.5,87.4L112.5,87.4l-0.4-0.1l0,0h-0.2l0,0h-0.2h-0.1h-0.2h-0.1h-0.1H111h-0.3h-0.6
				c-1.2,0-2.4,0.2-3.5,0.8L92.5,75.7h6.4l13.2,11.4L112.5,87.4z"/>
			<path class="st51" d="M108.7,164.3L108.7,164.3l-0.5-1.7l-1.8,1.1l-2.9,1.8l-8.2,5l-3,1.9l0,0l-0.4,0.2l-0.1,0.1l-13.9,17.6
				l8.4,2.9l4.9,1.7l0,0l5,0.8l5,0.8l1.1,0.2l2.1,0.3l1.1,0.2l6.9-6.4l0,0l3.4-3.2l0,0L108.7,164.3z M105.4,192.5l-2.3-0.3l-5.9-0.9
				v-16.7l10-6.2l0.3,1l0,0l5,16.4L105.4,192.5z"/>
			<path class="st52" d="M113.6,92.6L113.6,92.6c-0.9-1-2.1-1.6-3.4-1.6l3.1,2.7L113.6,92.6z"/>
			<path class="st52" d="M117.7,75.7l-3.1,12.7l-0.1-0.1c-0.6-0.4-1.3-0.7-2-0.9l0.8-3.1l2-8.6H117.7z"/>
			<polygon class="st0" points="73.9,75.7 70.4,77.8 66.5,80.2 65.8,79 63.9,80.5 64.5,81.4 64.5,81.4 56.7,86.1 56.6,86.2 
				56.6,83.3 56.7,83.2 69.2,75.7 			"/>
			<path class="st0" d="M113.4,93.7l-3.1-2.7h-0.2c-0.9,0-1.8,0.3-2.6,0.8l5.3,4.5L113.4,93.7z"/>
			<path class="st0" d="M106.6,87.8L106.6,87.8c-0.8,0.3-1.6,0.8-2.2,1.4L91.1,77.8l-0.7-0.5l-1.2-0.9l0,0l0.3-0.6h3L106.6,87.8z"/>
			<polygon class="st0" points="119,79.9 119,79.9 118.4,82.6 118.4,82.6 127.4,91.2 128,91.5 128.4,91.7 128.4,88.9 128,88.5 			
				"/>
			<polygon class="st0" points="127.4,176.7 117.7,185.7 117.7,185.7 118.1,186.8 118.2,187.5 117.4,187.8 116.1,188.3 116.1,188.3 
				116.1,188.3 115.7,187.3 115.8,187.3 105.2,197 105.6,197.1 105.7,197.1 106.1,197.1 106.1,197.1 105.8,199.6 104.2,199.4 
				103.3,199.3 103.2,199.3 94.8,207.1 98.3,207.1 128,179.4 128.4,179.1 128.4,176.3 128,176.5 			"/>
			<polygon class="st0" points="89.5,75.7 89.2,76.3 78.9,99.9 78.9,99.9 77.5,97.5 87,75.7 			"/>
			<polygon class="st0" points="101.3,196.4 91.2,194.9 91.2,194.9 			"/>
			<polygon class="st0" points="75.5,189.4 63.3,185.2 58.5,183.5 58.5,183.5 61.6,184.6 63.3,185.2 75.5,189.4 			"/>
			<polygon class="st0" points="77.9,190.3 77.9,190.3 91.2,194.9 			"/>
			<path class="st0" d="M76.3,192.3l2,0.7L76.3,192.3z"/>
			<path class="st0" d="M106.1,197.1h-0.4H106.1z"/>
			<polygon class="st0" points="56.7,134.5 91.1,122.7 90.4,122.4 89.3,120.7 89.3,120.7 56.7,131.8 56.6,131.9 56.6,134.5 			"/>
			<polygon class="st0" points="110.2,161.3 110.2,161.3 118.1,186.8 117.7,185.7 102.1,135 107.9,154.1 			"/>
			<path class="st0" d="M116.1,188.3l1.3-0.5L116.1,188.3z"/>
			<polygon class="st0" points="102.8,163 104.3,162.1 90.4,170.6 85.6,176.8 90.4,170.6 			"/>
			<polygon class="st0" points="103.5,165.5 91.9,172.6 91.8,172.7 91.9,172.6 			"/>
			<polygon class="st0" points="96.6,124.9 96.4,124.4 96.7,124.3 96.9,122.3 91.9,120.3 78.9,99.9 78.9,99.9 77.5,97.5 77.5,97.5 
				66.5,80.2 66.5,80.2 65.8,79 63.9,80.5 64.5,81.4 64.5,81.4 89.3,120.7 89.3,120.7 90.4,122.4 91.1,122.7 91.1,122.7 			"/>
			<polygon class="st0" points="110,117.4 111.2,112.4 111.2,112.4 			"/>
			<path class="st0" d="M116.5,90.1L116.5,90.1l1.9-7.5l0,0l0.6-2.7l0,0l1-4.2h-2.3l-3.1,12.7C115.3,88.9,115.9,89.4,116.5,90.1z"/>
			<polygon class="st0" points="107.6,117.5 105.7,125.8 105.7,125.8 			"/>
			<path class="st0" d="M112.7,96.3l-0.9,3.7c2.4-1,3.6-3.7,2.6-6.1c-0.2-0.5-0.5-0.9-0.8-1.3l-0.2,1.1L112.7,96.3z"/>
			<polygon class="st0" points="128,134.5 107.8,126.7 107.2,129.1 106,128.7 106,128.7 127.8,137.1 128,137.1 128.4,137.1 
				128.4,134.5 128.1,134.6 			"/>
			<polygon class="st0" points="91.2,194.9 91.2,194.9 91.2,194.9 77.9,190.3 76.3,192.3 76.3,192.3 78.3,193 90.6,197.4 
				91.1,197.5 100.7,198.9 103.4,199.4 103.2,199.3 103.3,199.3 104.2,199.4 105.8,199.6 106.1,197.1 105.7,197.1 105.6,197.1 
				105.6,197.1 101.3,196.4 			"/>
			<polygon class="st0" points="75.5,189.4 75.5,189.4 72,188.2 61.6,184.6 61.6,187.2 61.5,187.2 56.7,185.5 56.6,185.5 
				56.6,182.8 56.7,182.9 58.5,183.5 58.5,183.5 61.6,184.6 63.3,185.2 72,188.2 			"/>
			<polygon class="st0" points="102.6,144.4 107.4,160.1 107.4,160.1 			"/>
			<polygon class="st0" points="96.6,124.9 96.7,124.3 96.7,124.3 96.4,124.4 96.6,124.9 96.6,124.9 			"/>
			<polygon class="st0" points="99.3,126.1 107.9,154.1 102.1,135 			"/>
			<polygon class="st0" points="110.2,161.3 109.4,161.8 109.4,161.8 109.4,161.8 108.2,162.6 115.6,187.5 115.9,188.3 116.1,188.3 
				117.4,187.8 118.2,187.5 118.1,186.8 			"/>
			<polygon class="st0" points="90.5,170.6 102.8,163 90.4,170.6 85.6,176.8 75.5,189.4 75.5,189.4 75.5,189.4 75.5,189.4 
				75.5,189.4 			"/>
			<polygon class="st0" points="109.4,161.8 109.4,161.8 108.2,162.6 108.2,162.6 106.4,163.6 108.2,162.6 			"/>
			<polygon class="st51" points="63.6,125.8 83.4,118.9 70.4,98.9 59.4,102.7 			"/>
			<polygon class="st53" points="69.3,94.6 63.6,85.5 57.1,89.5 58.9,98.3 			"/>
			<polygon class="st53" points="97.2,174.6 97.1,191.4 105.4,192.5 112.7,185.8 107.2,168.4 			"/>
			<path class="st53" d="M115.3,75.7l-2,8.6l-0.8,3.1l0,0l-0.4-0.3L98.9,75.7H115.3z"/>
			<polygon class="st53" points="71.4,194.5 71.3,207.1 57.9,207.2 58,190 69.7,193.9 			"/>
			<polygon class="st53" points="110.4,123.1 125.2,128.7 125.3,115.6 113.4,111.7 			"/>
			<path class="st6" d="M111,112.6L111,112.6l-1,1.1c-0.4-0.5-0.8-0.9-1.2-1.4l-1.2,5.2l-2,8.3l0,0l-8.7-3.5l0,0l0,0l-0.3,2l0,0
				l-0.1,0.7l0,0l6,19.4l4.8,15.3l-0.1,0.3l-3.1,2l-1.4,0.9l-12.4,7.6l-14.8,18.8l0,0l-19.2-7.1v3l5.2,1.9l14.7,5.1h0.2l1.5-2.1l0,0
				l13.9-17.6l0.1-0.1l11.6-7.2l2.9-1.8l1.8-1.1l0,0l1.2-0.7l0,0l0.8-0.5l0,0l-2.2-7.3l-8.6-28l0,0l6.7,2.6l1.1,0.4l0.6-2.4l2.2-9.3
				l1.2-4.9C111.1,112.5,111.1,112.6,111,112.6z"/>
			<path class="st6" d="M118.7,95.6c-0.2-2-0.9-3.9-2.1-5.4l-0.1-0.1c-0.1-0.1-0.2-0.3-0.3-0.4l0,0l-0.1-0.1l-0.1-0.1l0,0l-0.1-0.1
				l-0.1-0.1l0,0l-0.1-0.1l-0.1-0.1l-0.1-0.1l-0.2-0.2l-0.1-0.1l-0.1-0.1l-0.2-0.1l-0.2-0.1l-0.1-0.1c-0.6-0.4-1.3-0.7-2-0.9l0,0
				h-0.1h-0.1c-0.7-0.2-1.5-0.3-2.3-0.3c-1.2,0-2.4,0.2-3.5,0.8h-0.1c-0.7,0.3-1.4,0.8-2,1.4l0,0c-1.7,1.7-2.8,4-3,6.4
				c-0.6,6,3,11.5,7.3,16.6l0,0l0.1,0.1l0.5,0.6l0,0l0.7,0.8l1-1.1l0,0c0-0.1,0.1-0.1,0.1-0.2l0,0
				C115.5,107.3,119.3,101.7,118.7,95.6z M111.8,100L111.8,100c-0.6,0.2-1.2,0.3-1.7,0.3h-0.4h-0.1h-0.2h-0.2H109h-0.1h-0.1
				l-0.2-0.1h-0.2l0,0l-0.2-0.1l-0.1-0.1l0,0H108l0,0l0,0l0,0c0,0-0.1,0-0.1-0.1l-0.1-0.1l0,0l-0.1-0.1l-0.1-0.1l0,0l-0.1-0.1l0,0
				l0,0l-0.1-0.1l0,0l-0.1-0.1l-0.1-0.1l-0.1-0.1L107,99l0,0l0,0c0,0,0,0-0.1,0v-0.1l-0.1-0.1V99l0,0l-0.1-0.1l-0.1-0.1l-0.1-0.2
				v-0.1v-0.1l0,0v-0.1c-0.1-0.1-0.1-0.2-0.2-0.3v0l-0.1-0.1l-0.1-0.2v-0.1l0,0v-0.1v-0.1c0,0,0,0,0-0.1s0-0.2,0-0.2s0,0,0-0.1v-0.2
				c0,0,0,0,0-0.1s0-0.1,0-0.1v-0.1v-0.1v-0.1v-0.1c0-1.6,0.8-3,2.1-3.9l0,0l0.1-0.1h0.1l0,0l0.1-0.1l0,0l0.1-0.1l0.1-0.1l0,0h0.1
				l0,0h0.1h0.1h0.1l0,0h0.1h0.1h0.1h0.1l0,0h0.1h0.1h0.1h0.1h0.2h0.1h1.2h0.1h0.1h0.1h0.1h0.1h0.1h0.1h0.1l0,0h0.1l0,0l0.1,0.1l0,0
				l0.1,0.1l0,0l0.1,0.1l0.1,0.1l0,0h0.1h0.1l0.1,0.1l0,0l0.1,0.1l0,0l0.1,0.1l0,0l0.1,0.1l0,0l0.1,0.1l0,0l0.1,0.1l0.1,0.1l0.4,0
				l0.1,0.1c1.7,1.9,1.5,4.9-0.4,6.6c-0.4,0.3-0.9,0.6-1.3,0.8L111.8,100z"/>
			<path class="st54" d="M80.4,69.1c-0.1,1,0.7,1.8,1.6,1.9h18.9c1-0.1,1.7-0.9,1.6-1.9l0,0c0.1-1-0.7-1.8-1.6-1.9H82
				C81,67.3,80.3,68.1,80.4,69.1z"/>
			<path class="st55" d="M100.9,66.7H82c-1.3,0.1-2.3,1.3-2.1,2.6c0.1,1.1,1,1.9,2,2.1h19c1.3-0.2,2.2-1.4,2.1-2.7
				C102.8,67.7,102,66.8,100.9,66.7L100.9,66.7z"/>
			<path class="st5" d="M102,69.1c0.1,0.7-0.4,1.3-1.1,1.4H82c-0.8-0.2-1.2-0.9-1.1-1.6c0.1-0.5,0.5-1,1.1-1.1h18.9
				C101.6,67.8,102,68.4,102,69.1z"/>
			<path class="st55" d="M120.5,66.2l-3.8,9.5H84.6l1.1-2.9l0.9-2.4h14.3c0.8-0.2,1.2-0.9,1.1-1.6c-0.1-0.5-0.5-1-1.1-1.1H87.7
				l0.6-1.4l0.5-1.2l0.7-1.8H121C121,64.3,120.8,65.3,120.5,66.2z"/>
			<path class="st55" d="M64.4,207.1c-1.6,4-3.3,8-5,11.9c-3.8-1.3-6.8-5.3-7.4-10.2c-0.1-0.6-0.1-1.2-0.1-1.9v-47.4l4.7-12v59.4
				L64.4,207.1z"/>
			<path class="st55" d="M77.1,63.3c-1.6,3.6-3.6,7.8-5.7,12.4H56.6V108l-4.7,10.2V75.8c0-6.8,4.6-12.4,10.2-12.4h15V63.3z"/>
			<path class="st56" d="M71.4,75.7l-1,2.1l-2.3,5c-0.4,0.8-0.8,1.7-1.2,2.5c-0.6,1.2-1.1,2.4-1.7,3.6L61.6,97
				c-1.8,3.8-3.5,7.6-5.1,11V75.7H71.4z"/>
			<path class="st48" d="M189.6,233.8H122c-0.6-4.7-0.9-9.5-0.9-14.2c0-4.1,0.2-8.3,0.7-12.4c0.5-4.5,1.4-8.9,2.7-13.3
				c1-3.4,2.4-6.8,4-10c0.3-0.6,0.6-1.2,0.9-1.7c0.2-0.4,0.4-0.8,0.6-1.1c0.9-1.6,2-3.1,3.1-4.5c0.5-0.6,1-1.3,1.6-1.8
				c1.9-2,2.6-4.8,1.8-7.5c-0.1-0.3-0.3-0.7-0.4-1l-1-1.7l-2-3.5l-3.9-7c-0.2-0.4-0.4-0.7-0.7-1c-1.8-2.1-4.6-3.3-7.4-3.1
				c-2,0.2-4,0.3-5.9,0.3c-2.9,0.1-5.8-0.3-8.6-1l0,0c-0.9-0.3-1.7-0.6-2.5-1.1l-0.2-0.1l-0.2-0.1c-5.4-3.5-6.4-5.8-6.4-5.8v-0.1
				l0,0V142c-0.1-0.3-0.2-0.6-0.2-0.9l0,0c-0.1-0.6-0.1-1.3,0.1-1.9c0,0,0,0,0-0.1c0.1-0.3,0.2-0.6,0.3-0.8l0.1-0.2
				c0.1-0.2,0.3-0.4,0.4-0.6c0.1-0.1,0.2-0.2,0.3-0.3c0.1-0.1,0.2-0.2,0.4-0.4c0.2-0.1,0.4-0.2,0.6-0.4l0.3-0.2
				c0.2-0.1,0.4-0.1,0.5-0.2l0.5-0.1l1.8-0.4l0,0l4.3-0.9c0.5-0.1,1.1-0.2,1.7-0.4l0.3-0.1l1.9-0.5l0,0l0.5-0.1l0.7-0.2
				c1.2-0.3,2.3-0.7,3.4-1.1c0.7-0.2,1.4-0.5,2-0.7c0,0,0.6-0.2,1.6-0.6c2.5-0.8,7.3-2.3,10-1.8c0.3,0.1,0.7,0.2,1,0.3
				c1.3,0.7,2.5,1.4,3.7,2.2c11.2,7.6,27.2,24.6,27.2,24.6c0.3,0.4,0.7,0.7,1,1.2c1.9,2.4,3.3,5.1,4.3,8l0.5,1.7l6.4,21.4l9.4,31.7
				L189.6,233.8z"/>
			<path class="st57" d="M108.3,137.5c-2.7,0.7-5.4,1.1-8.1,1.2c0,0-2.1,0.6,0.2-2.9l0,0l6-1.3c0.5-0.1,1.1-0.2,1.7-0.4l0.3-0.1
				c0.6-0.1,1.2-0.3,1.9-0.5l0,0l1.1-0.3C111,134.7,110.1,136.9,108.3,137.5z"/>
		</g>
	</g>
</g>
<linearGradient id="SVGID_45_" gradientUnits="userSpaceOnUse" x1="101.1429" y1="136" x2="118.8661" y2="136" gradientTransform="matrix(1 0 0 -1 0 236)">
	<stop  offset="0" style="stop-color:#AD60A5"/>
	<stop  offset="0.28" style="stop-color:#B163A7"/>
	<stop  offset="0.56" style="stop-color:#BE6DAB"/>
	<stop  offset="0.85" style="stop-color:#D27DB3"/>
	<stop  offset="1" style="stop-color:#E088B8"/>
</linearGradient>
<path class="st58" d="M118.9,96.4c0,5.7-3.6,11-7.7,15.9c0,0.1-0.1,0.1-0.1,0.2l-1,1.2l-0.7-0.8l-0.5-0.6l-0.1-0.1
	c-4.4-5.2-8.1-10.9-7.5-17.1c0.2-2.5,1.3-4.8,3.1-6.6c0.6-0.6,1.3-1.1,2.1-1.4h0.1c1.1-0.5,2.4-0.8,3.6-0.8c0.8,0,1.6,0.1,2.4,0.3
	h0.1c0.7,0.2,1.4,0.5,2.1,1l0.1,0.1l0.2,0.1l0.2,0.1l0.1,0.1l0.2,0.1l0.2,0.2l0.1,0.1l0.1,0.1l0.1,0.1c0.1,0,0.1,0.1,0.1,0.1
	l0.1,0.1l0.1,0.1l0.1,0.1c0.1,0.1,0.2,0.3,0.3,0.4l0.1,0.1c1.2,1.6,2,3.6,2.2,5.6C118.8,95.5,118.9,96,118.9,96.4z"/>
<circle class="st1" cx="110" cy="95.5" r="6"/>
<path class="st56" d="M116.7,75.7l-0.3,0.8l-0.1,0.2l-0.2,0.5l-0.3,0.7l-1,2.4l-1.6,4l-1.1,2.8l-0.1,0.2l-1.5,3.7l0,0l-0.1,0.2
	l-0.9,2.4l-2.3,5.9l0,0l-1.3,3.4l-1.4,3.6l-2.8,7.2l-1.7,4.2l-1,2.1l-0.5,1.3l-0.5,1.4l-0.1,0.2c0,0-0.6,1.6-1.1,2.7l-0.4,1.1
	l-3.2,8l-1.1,2.8l-0.2,0.6l-5.2,13l-2,4.9l-1.5,3.8l-2.4,6.2l-6.6,16.5l-0.8,2.3l-1.3,3.3l0,0c-0.3,0.7-0.6,1.5-0.9,2.3
	c-0.5,1.3-1,2.6-1.4,3.6c-0.6,1.4-1,2.4-1,2.4c-1.4,3.5-1.9,6.6-3.4,10.1l-8.7-6.6l0-52.3l5.9-15.2l1.2-3l0,0l1.8-4.6l3.6-9.3l1.2-3
	l3.2-8.3v-0.1l1-2.6l1-2.6l0,0l1.1-2.7l7.9-20.5L116.7,75.7z"/>
</svg>
