<?xml version="1.0" encoding="utf-8"?>
<!-- Generator: Adobe Illustrator 25.3.1, SVG Export Plug-In . SVG Version: 6.00 Build 0)  -->
<svg version="1.1" id="Layer_1" xmlns="http://www.w3.org/2000/svg" xmlns:xlink="http://www.w3.org/1999/xlink" x="0px" y="0px"
	 viewBox="0 0 209.1 148.1" style="enable-background:new 0 0 209.1 148.1;" xml:space="preserve">
<style type="text/css">
	.st0{fill:#050205;}
</style>
<g id="cars">
	<path class="st0" d="M104.6,83.7c-12.2,0-36.8,0.2-36.8,3.1S92.5,90,104.6,90s36.8-0.4,36.8-3.2S116.7,83.7,104.6,83.7z M198,50.1
		c5.2,0,11.1-2.6,11.1-8s-5.9-8-11.1-8c-6.2,0-9.6,3.6-9.6,8c0,0.5,0,1,0.1,1.5l-4.1,1.6l-0.2-0.4C182,33.8,166.7,8,157.7,3.5
		C151.9,0.6,118.7,0,104.6,0S57.2,0.6,51.4,3.5C42.4,8,27.1,33.8,25,44.9l-0.2,0.4l-4.2-1.6c0.1-0.5,0.2-1,0.1-1.5
		c0-4.4-3.4-8-9.6-8c-5.2,0-11.1,2.6-11.1,8s5.9,8,11.1,8c2.1,0.1,4.2-0.5,6.1-1.6l4,2.4C15.5,59.5,7.9,68.9,6.9,76.3
		c-1.2,8.6-2.4,32.5,0.9,43.3V144c0,2.3,1.9,4.1,4.1,4.1h18.6c2.3,0,4.1-1.8,4.2-4.1v-11.5h139.7V144c0,2.3,1.9,4.1,4.1,4.1h18.6
		c2.3,0,4.2-1.8,4.2-4.1c0,0,0,0,0,0v-24.4c3.3-10.8,2.1-34.7,0.9-43.3c-1-7.4-8.6-16.8-14.3-25.3l4-2.4
		C193.8,49.6,195.9,50.2,198,50.1z M53.2,9.7c5.4-3.5,35.1-4.3,51.3-4.3s46,0.8,51.3,4.3s21.4,27.5,19.8,31.2s-71.1,2.3-71.1,2.3
		S35,44.5,33.5,40.9S47.8,13.2,53.2,9.7z M15,76c-0.2-2.6,0.7-5.5,2-6.3s5-1.4,8.1-1.1l1.7,0.2c3.7,0.5,7.4,1.6,10.7,3.3l3.8,2.1
		c3.2,1.9,5.8,4.6,7.6,7.8l1.3,2.6c1.4,2.8,0,5.1-3.1,5.1h-4.1c-3.8-0.1-7.5-0.8-11-2.1l-11.4-4.5C17.9,81.7,15.3,78.6,15,76z
		 M20.5,115.5c-1.3-4,2-7.3,11.2-7.4c12.9-0.2,19.8,6.7,19.8,11.2C51.6,124.7,23.1,123.1,20.5,115.5L20.5,115.5z M139.8,126.8H69.3
		c-3.8,0-5.1-2.2-5.1-4.1c0-0.9,2-1.4,5.2-1.4h70.3c3.2,0,5.2,0.5,5.2,1.4C144.9,124.6,143.6,126.8,139.8,126.8L139.8,126.8z
		 M143,118.3H66c-4.3,0-7.2-2.5-7.2-5.2s2.1-3.3,5.8-3.3h79.8c3.7,0,5.8,0.6,5.8,3.3S147.4,118.3,143,118.3z M137.4,94H71.8
		c-9.4,0-12.9-5.3-12.9-9.9c0-3.7,1.3-4.8,9.6-4.8h72.2c8.3,0,9.6,1.2,9.6,4.8C150.2,88.7,146.7,94,137.4,94z M188.6,115.5
		c-2.6,7.7-31.1,9.3-31.1,3.8c0-4.5,6.9-11.4,19.8-11.2C186.6,108.2,189.9,111.5,188.6,115.5L188.6,115.5z M192.1,69.7
		c1.4,0.9,2.3,3.8,2,6.3s-2.8,5.7-5.7,6.8l-11.4,4.5c-3.5,1.3-7.2,2-11,2.1h-4c-3.1,0-4.5-2.3-3.1-5.1l1.3-2.6
		c1.8-3.2,4.5-5.9,7.6-7.8l3.8-2.1c3.3-1.7,6.9-2.8,10.7-3.3l1.7-0.2C187,68.3,190.7,68.8,192.1,69.7L192.1,69.7z"/>
</g>
</svg>
