<svg xmlns="http://www.w3.org/2000/svg" viewBox="0 0 209.12 148.1"><defs><style>.cls-1{fill:#fff;}</style></defs><g id="cars"><path class="cls-1" d="M104.56,83.68c-12.17,0-36.8.22-36.8,3.07S92.54,90,104.56,90s36.8-.41,36.8-3.25S116.73,83.68,104.56,83.68ZM198,50.12c5.2,0,11.13-2.56,11.13-8s-5.93-8-11.13-8c-6.22,0-9.62,3.57-9.62,8a8,8,0,0,0,.15,1.55l-4.15,1.56-.22-.37C182,33.76,166.71,8,157.74,3.53,151.89.61,118.66,0,104.56,0S57.23.61,51.38,3.53C42.41,8,27.13,33.76,25,44.89l-.22.37L20.6,43.7a8,8,0,0,0,.15-1.55c0-4.41-3.4-8-9.62-8-5.2,0-11.13,2.56-11.13,8s5.93,8,11.13,8a11.24,11.24,0,0,0,6.09-1.56l4,2.39c-5.74,8.52-13.28,17.93-14.3,25.3-1.18,8.6-2.38,32.47.94,43.32V144A4.15,4.15,0,0,0,12,148.1H30.57A4.15,4.15,0,0,0,34.72,144V132.53H174.4V144a4.15,4.15,0,0,0,4.15,4.15h18.59A4.15,4.15,0,0,0,201.3,144V119.57c3.31-10.85,2.11-34.72.93-43.32-1-7.37-8.56-16.78-14.3-25.3l4-2.39A11.24,11.24,0,0,0,198,50.12ZM53.22,9.69c5.37-3.48,35.06-4.31,51.34-4.31s46,.83,51.34,4.31,21.35,27.54,19.77,31.17-71.11,2.34-71.11,2.34S35,44.5,33.46,40.86,47.84,13.16,53.22,9.69ZM15,76c-.24-2.6.67-5.46,2-6.35s5-1.39,8.14-1.09l1.66.15A33,33,0,0,1,37.53,72l3.83,2.1A21.93,21.93,0,0,1,49,81.86l1.33,2.56c1.43,2.78.05,5.06-3.08,5.06H43.16a35.52,35.52,0,0,1-11-2.11L20.76,82.84C17.85,81.68,15.28,78.61,15,76Zm5.53,39.46c-1.34-4,1.95-7.3,11.24-7.45,12.94-.22,19.82,6.71,19.82,11.23C51.63,124.74,23.13,123.11,20.57,115.46Zm119.25,11.36H69.3c-3.82,0-5.11-2.19-5.11-4.09,0-.88,2-1.42,5.24-1.42h70.26c3.24,0,5.24.54,5.24,1.42C144.93,124.63,143.64,126.82,139.82,126.82Zm3.22-8.51h-77c-4.32,0-7.21-2.49-7.21-5.19s2.08-3.32,5.81-3.32h79.76c3.73,0,5.81.62,5.81,3.32S147.36,118.31,143,118.31ZM137.35,94H71.77c-9.39,0-12.9-5.26-12.9-9.94,0-3.65,1.33-4.8,9.61-4.8h72.16c8.28,0,9.61,1.15,9.61,4.8C150.25,88.71,146.74,94,137.35,94Zm51.2,21.49c-2.56,7.65-31.06,9.28-31.06,3.78,0-4.52,6.88-11.45,19.83-11.23C186.6,108.16,189.89,111.46,188.55,115.46Zm3.5-45.81c1.36.89,2.28,3.75,2,6.35s-2.81,5.68-5.72,6.84l-11.42,4.53a35.52,35.52,0,0,1-11,2.11H161.9c-3.13,0-4.51-2.28-3.07-5.06l1.32-2.56a21.93,21.93,0,0,1,7.61-7.79l3.83-2.1a33,33,0,0,1,10.66-3.26l1.66-.15C187,68.26,190.69,68.76,192.05,69.65Z"/></g></svg>