<svg id="Layer_1" data-name="Layer 1" xmlns="http://www.w3.org/2000/svg" viewBox="0 0 27.05 18.01"><defs><style>.cls-1{fill:#e03c30;}.cls-2{fill:#2a307d;}.cls-3{fill:#007749;}.cls-4{fill:#fcb71b;}</style></defs><polygon class="cls-1" points="5.43 0 14.43 6.02 27.05 6.02 27.05 0 5.43 0"/><polygon class="cls-2" points="5.43 18.01 14.43 11.99 27.05 11.99 27.05 18.01 5.43 18.01"/><polygon class="cls-3" points="3.26 0 14.06 7.24 27.05 7.24 27.05 10.8 14.06 10.8 3.26 18.01 0.03 18.01 0.03 15.88 10.26 9.01 0.03 2.14 0.03 0 3.26 0"/><polygon class="cls-4" points="0.01 15.88 10.24 9 0.01 2.13 0.01 15.88"/><polygon points="0 3.63 8.07 9.02 0 14.41 0 3.63"/></svg>