<?xml version="1.0" encoding="utf-8"?>
<!-- Generator: Adobe Illustrator 25.3.1, SVG Export Plug-In . SVG Version: 6.00 Build 0)  -->
<svg version="1.1" id="Layer_1" xmlns="http://www.w3.org/2000/svg" xmlns:xlink="http://www.w3.org/1999/xlink" x="0px" y="0px"
	 viewBox="0 0 33.6 31.9" style="enable-background:new 0 0 33.6 31.9;" xml:space="preserve">
<style type="text/css">
	.st0{fill:none;}
	.st1{fill:#FFFFFF;}
</style>
<rect x="-1044.2" y="-518.7" class="st0" width="1920" height="1080"/>
<g>
	<path class="st1" d="M16.8,5.6l3,6.2l0.5,1l1,0.2l6.9,1l-5,4.8l-0.8,0.7l0.2,1l1.2,6.8l-6.1-3.2l-0.9-0.5l-0.9,0.5l-6.1,3.2
		l1.1-6.8l0.2-1l-0.7-0.7L5.4,14l6.8-1l1-0.2l0.5-0.9L16.8,5.6 M16.8,1.1L11.9,11L1.1,12.6l7.8,7.6L7.1,31l9.7-5.1l9.7,5.1
		l-1.9-10.8l7.9-7.6L21.6,11L16.8,1.1L16.8,1.1z"/>
</g>
</svg>
