<?xml version="1.0" encoding="utf-8"?>
<!-- Generator: Adobe Illustrator 25.3.1, SVG Export Plug-In . SVG Version: 6.00 Build 0)  -->
<svg version="1.1" id="Layer_1" xmlns="http://www.w3.org/2000/svg" xmlns:xlink="http://www.w3.org/1999/xlink" x="0px" y="0px"
	 viewBox="0 0 25.3 25.1" style="enable-background:new 0 0 25.3 25.1;" xml:space="preserve">
<style type="text/css">
	.st0{fill:#FFFFFF;}
</style>
<path class="st0" d="M18.8,16.5c0.9,0.9,5.2,5.2,6,6.1c0.6,0.5,0.6,1.3,0.2,1.9c0,0-0.1,0.1-0.1,0.1c-0.5,0.6-1.3,0.6-1.9,0.1
	c0,0-0.1-0.1-0.1-0.1c-0.9-0.8-5.3-5.2-6.2-6.1L18.8,16.5z"/>
<path class="st0" d="M11,0C4.9,0,0,4.9,0,11s4.9,11,11,11s11-4.9,11-11S17.1,0,11,0z M11,19c-4.4,0-8-3.6-8-8s3.6-8,8-8s8,3.6,8,8
	S15.4,19,11,19z"/>
</svg>
