<?xml version="1.0" encoding="utf-8"?>
<!-- Generator: Adobe Illustrator 25.3.1, SVG Export Plug-In . SVG Version: 6.00 Build 0)  -->
<svg version="1.1" id="Layer_1" xmlns="http://www.w3.org/2000/svg" xmlns:xlink="http://www.w3.org/1999/xlink" x="0px" y="0px"
	 viewBox="0 0 128 49" style="enable-background:new 0 0 128 49;" xml:space="preserve">
<style type="text/css">
	.st0{fill-rule:evenodd;clip-rule:evenodd;fill:#1B1B1B;}
</style>
<path class="st0" d="M5,38.8l2.5-2.5H5l-5-7.5v-10h2.5L5,16.2H0l2.5-2.5h37.7l-2.5-2.5l2.5-7.5l2.5-2.5h37.6v2.5l15.1,10h-5
	l-12.6-10H50.2v10l5,2.5h7.5v-10h2.5v10h50.2l7.6,2.6l-2.5,2.5l2.5,2.5h5v5l-2.5,2.5l2.5,2.5v5l-7.5,2.5h-1.7
	c0.4-1.3,0.6-2.6,0.6-3.9c-0.2-7.3-6.3-13.1-13.6-12.9c-7,0.2-12.7,5.8-12.9,12.9c0,1.3,0.2,2.6,0.6,3.9H43.9
	c0.4-1.3,0.6-2.6,0.6-3.9c-0.2-7.3-6.3-13.1-13.6-12.9c-7,0.2-12.7,5.8-12.9,12.9c0,1.3,0.2,2.6,0.6,3.9H7.5L5,38.8z M105.2,26.5
	c5.9,0,10.7,4.8,10.7,10.7c0,3.2-1.4,6.2-3.8,8.2h7.5v2.5H6.6v-2.5h16.8c-4.5-3.8-5.1-10.6-1.3-15.1s10.6-5.1,15.1-1.3
	s5.1,10.6,1.3,15.1c-0.4,0.5-0.8,0.9-1.3,1.3h61.1c-4.5-3.8-5.1-10.6-1.3-15.1C99,27.9,102,26.5,105.2,26.5z M110.9,37.2
	c0.1,3.1-2.3,5.8-5.5,5.9c-3.1,0.1-5.8-2.3-5.9-5.5c0-0.2,0-0.3,0-0.5h2.5c-0.1,1.8,1.2,3.3,3,3.4c1.8,0.1,3.3-1.2,3.4-3
	c0-0.1,0-0.2,0-0.4H110.9z M105.2,29c4.5,0.2,8.1,4,7.9,8.5c-0.2,4.3-3.6,7.8-7.9,7.9h-0.1c-4.5-0.2-8.1-4-7.9-8.5
	C97.4,32.6,100.9,29.2,105.2,29L105.2,29z M36,37.2c0.1,3.1-2.3,5.8-5.5,5.9s-5.8-2.3-5.9-5.5c0-0.2,0-0.3,0-0.5h2.5
	c-0.1,1.8,1.2,3.3,3,3.4c1.8,0.1,3.3-1.2,3.4-3c0-0.1,0-0.2,0-0.4H36z M30.3,29c4.5,0.2,8.1,4,7.9,8.5c-0.2,4.3-3.6,7.8-7.9,7.9
	h-0.1c-4.5-0.2-8.1-4-7.9-8.5C22.5,32.6,26,29.2,30.3,29L30.3,29z M8.6,38.8h7c0-0.5-0.1-0.9-0.1-1.4C15.7,28.7,23,21.8,31.6,22
	C40,22.3,46.8,29,47,37.4c0,0.5,0,0.9-0.1,1.4h43.5c0-0.5-0.1-0.9-0.1-1.4c0.2-8.7,7.4-15.6,16.1-15.3c8.4,0.2,15.1,7,15.3,15.3
	c0,0.3,0,0.5,0,0.8l3.6-1.2v-2.2l-3.6-3.5l3.6-3.5v-1.5h-3.6l-5-5l1.4-1.4l-3.3-1.1H54.6l-6.9-3.5V3.6h-4L42.3,5l-1.8,5.5l5.7,5.7
	H8.6l-5,5h-1V28l3.8,5.8h7.2L8.6,38.8L8.6,38.8z"/>
</svg>
