<?xml version="1.0" encoding="utf-8"?>
<!-- Generator: Adobe Illustrator 25.3.1, SVG Export Plug-In . SVG Version: 6.00 Build 0)  -->
<svg version="1.1" id="Layer_1" xmlns="http://www.w3.org/2000/svg" xmlns:xlink="http://www.w3.org/1999/xlink" x="0px" y="0px"
	 viewBox="0 0 128 49" style="enable-background:new 0 0 128 49;" xml:space="preserve">
<style type="text/css">
	.st0{fill-rule:evenodd;clip-rule:evenodd;fill:#1B1B1B;}
</style>
<path class="st0" d="M2.5,37.2l-2.5-5v-5h2.5v-7.6h35.1l-2.5-2.5H2.5L5,2l2.5-2.5h77.8L92.8,2l17.6,12.6h-5l-10-7.5H75.3v5l2.5,2.5
	l25.1,2.5h10l10,5l2.5,2.5l-2.4,2.5l2.5,2.5h2.5v7.5l-5,5h-4c1.3-6-2.6-11.9-8.6-13.2c-6-1.3-11.9,2.6-13.2,8.6
	C97,38.3,97,39.1,97,39.9c0,0.8,0.1,1.5,0.2,2.2H30.6c1.3-6-2.6-11.9-8.6-13.2s-11.8,2.6-13.1,8.7c-0.2,0.8-0.2,1.6-0.2,2.4
	c0,0.5,0,0.9,0.1,1.3L2.5,37.2L2.5,37.2z M108.1,31.3c4.8,0,8.6,3.9,8.6,8.6c0,2.3-0.9,4.5-2.5,6.1h8.8v2.5H2.5V46h11.2
	c-3.4-3.4-3.4-8.8,0-12.2s8.8-3.4,12.2,0s3.4,8.8,0,12.2l0,0H102c-3.4-3.4-3.4-8.8,0-12.2C103.6,32.2,105.8,31.3,108.1,31.3
	L108.1,31.3z M111.7,39.9c0,2-1.6,3.6-3.6,3.6s-3.6-1.6-3.6-3.6h2.5c0,0.6,0.5,1.1,1.1,1.1s1.1-0.5,1.1-1.1l0,0H111.7z M108.1,33.8
	c3.4,0,6.1,2.7,6.1,6.1c0,3.4-2.7,6.1-6.1,6.1s-6.1-2.7-6.1-6.1l0,0C102,36.6,104.7,33.8,108.1,33.8z M23.3,39.9
	c0,2-1.6,3.6-3.6,3.6s-3.6-1.6-3.6-3.6h2.5c-0.1,0.6,0.4,1.1,1,1.2c0.6,0.1,1.1-0.4,1.2-1c0-0.1,0-0.1,0-0.2H23.3z M19.7,33.8
	c3.4,0,6.1,2.7,6.1,6.1c0,3.4-2.7,6.1-6.1,6.1s-6.1-2.7-6.1-6.1l0,0C13.6,36.6,16.4,33.8,19.7,33.8z M4.5,35.4l2,1.3
	c1.8-7.3,9.1-11.8,16.4-10.1c6,1.4,10.3,6.8,10.5,13h61.1c0-7.5,6.1-13.6,13.6-13.6s13.6,6.1,13.6,13.6h0.2l3.6-3.5v-4h-1l-5-5
	l2.5-2.5l-0.4-0.5l-9.1-4.6h-9.6l-26.2-2.6L72.8,13V4.5h19.3l-0.3-0.2L85,2.1H8.6L7.4,3.2L5.5,14.6h30.7l7.5,7.5H5v7.5H2.5v1.9
	L4.5,35.4L4.5,35.4z"/>
</svg>
