<?xml version="1.0" encoding="utf-8"?>
<!-- Generator: Adobe Illustrator 25.3.1, SVG Export Plug-In . SVG Version: 6.00 Build 0)  -->
<svg version="1.1" id="Layer_1" xmlns="http://www.w3.org/2000/svg" xmlns:xlink="http://www.w3.org/1999/xlink" x="0px" y="0px"
	 viewBox="0 0 128 49" style="enable-background:new 0 0 128 49;" xml:space="preserve">
<style type="text/css">
	.st0{fill:#1B1B1B;}
</style>
<g>
	<path class="st0" d="M57.8,32.4V30c0-2.1,0.4-3.9,1.3-5.4c0.9-1.5,2.5-3.2,4.9-4.9c2.3-1.6,3.8-2.9,4.5-3.9c0.7-1,1.1-2.1,1.1-3.4
		c0-1.4-0.5-2.5-1.6-3.2c-1-0.7-2.5-1.1-4.3-1.1c-3.2,0-6.9,1.1-11.1,3.2l-3.5-7.1c4.8-2.7,9.9-4,15.3-4c4.4,0,8,1.1,10.6,3.2
		s3.9,5,3.9,8.5c0,2.4-0.5,4.4-1.6,6.1c-1.1,1.7-3.1,3.7-6.1,5.8c-2.1,1.5-3.4,2.7-3.9,3.5c-0.6,0.8-0.8,1.8-0.8,3.1v1.9H57.8z
		 M56.8,43.5c0-1.8,0.5-3.2,1.5-4.1c1-0.9,2.4-1.4,4.2-1.4c1.8,0,3.2,0.5,4.2,1.4c1,0.9,1.5,2.3,1.5,4.1c0,1.7-0.5,3-1.5,4
		S64.2,49,62.5,49c-1.8,0-3.2-0.5-4.2-1.4C57.3,46.6,56.8,45.2,56.8,43.5z"/>
</g>
</svg>
