<?xml version="1.0" encoding="utf-8"?>
<!-- Generator: Adobe Illustrator 25.3.1, SVG Export Plug-In . SVG Version: 6.00 Build 0)  -->
<svg version="1.1" id="Layer_1" xmlns="http://www.w3.org/2000/svg" xmlns:xlink="http://www.w3.org/1999/xlink" x="0px" y="0px"
	 viewBox="0 0 128 49" style="enable-background:new 0 0 128 49;" xml:space="preserve">
<style type="text/css">
	.st0{fill-rule:evenodd;clip-rule:evenodd;fill:#1B1B1B;}
</style>
<path class="st0" d="M2.8,38.7L0,33.1v-2.8l5.6-5.6l0,0l-2.8,2.8L0,22l5.6-8.3h5.6l19.5-8.4l11.1-2.8H64l11.1,2.8l16.7,8.4h-8.3
	l-8.4-5.6L64,5.3H44.5l-13.9,8.4l2.8,2.8H39l2.8-5.6v5.6h13.9V8.1h2.8v8.4h36.2l27.8,5.6l5.6,2.8l-2.8,2.8l2.8,2.8v5.6l-5.6,5.6
	h-8.5c0.4-1.3,0.7-2.6,0.7-4c0.2-6.8-5.2-12.5-12-12.7s-12.5,5.2-12.7,12c0,0.2,0,0.5,0,0.7c0,1.4,0.2,2.7,0.7,4H36.8
	c0.4-1.3,0.7-2.6,0.7-4c0-6.8-5.5-12.3-12.3-12.3c-6.8,0-12.3,5.5-12.3,12.3c0,0,0,0,0,0c0,1.4,0.2,2.7,0.7,4H8.4L2.8,38.7z
	 M102.2,28c5.3,0,9.5,4.3,9.5,9.6c0,2.5-1,4.9-2.8,6.7h13.5V47H2.8v-2.8h15.6c-3.7-3.7-3.8-9.8,0-13.5s9.8-3.8,13.5,0
	s3.8,9.8,0,13.5c0,0,0,0,0,0h63.6c-3.7-3.7-3.7-9.8,0.1-13.5C97.3,29,99.7,28,102.2,28z M106.2,37.5c0,2.2-1.8,4-4,4s-4-1.8-4-4h2.8
	c0.1,0.7,0.6,1.2,1.3,1.1c0.6-0.1,1-0.5,1.1-1.1H106.2z M102.2,30.8c3.7,0,6.8,3,6.8,6.8s-3,6.8-6.8,6.8c-3.7,0-6.8-3-6.8-6.8
	c0,0,0,0,0,0C95.5,33.8,98.5,30.8,102.2,30.8z M29.1,37.5c0,2.2-1.8,4-4,4s-4-1.8-4-4h2.8c0,0.7,0.5,1.2,1.2,1.2
	c0.7,0,1.2-0.5,1.2-1.2H29.1z M25.1,30.7c3.7,0,6.8,3,6.8,6.8s-3,6.8-6.8,6.8s-6.8-3-6.8-6.8S21.4,30.7,25.1,30.7L25.1,30.7z
	 M4.9,36.6L9,38.7h1.1c0-0.4,0-0.8,0-1.2C9.8,29.2,16.4,22.2,24.8,22s15.3,6.4,15.5,14.7c0,0.3,0,0.5,0,0.8c0,0.4,0,0.8,0,1.2h47
	c0-0.4,0-0.8,0-1.2C87.1,29.2,93.7,22.2,102,22s15.3,6.4,15.5,14.7c0,0.3,0,0.5,0,0.8c0,0.4,0,0.8,0,1.2h4l3.9-3.9v-3.3l-3.9-3.9
	l2-2l-1.8-0.9l-27.4-5.5H32.2l-6.1-6.1L37,6.6L31.5,8l-19.8,8.4H7.1l-3.8,5.8l0.3,0.7l2-2l4,3.9l-6.7,6.7v1L4.9,36.6L4.9,36.6z"/>
</svg>
